<svg version="1.1" id="Layer_1" xmlns="http://www.w3.org/2000/svg" xmlns:xlink="http://www.w3.org/1999/xlink" x="0px" y="0px"
	 width="100%" viewBox="0 0 1920 1080" enable-background="new 0 0 1920 1080" xml:space="preserve">
<path fill="#000000" opacity="0" stroke="none" 
	d="
M1.000000,503.000000 
	C1.000000,335.692261 1.000000,168.384537 1.000000,1.038404 
	C640.876465,1.038404 1280.752930,1.038404 1921.000000,1.038404 
	C1921.000000,80.697197 1921.000000,160.394974 1920.672852,240.853683 
	C1916.434204,240.743088 1912.537354,239.206024 1908.608521,239.119873 
	C1894.619995,238.813095 1880.620361,238.994675 1866.625000,239.002228 
	C1859.562866,239.006027 1857.001953,241.624832 1857.001343,248.834549 
	C1856.998291,285.155914 1857.000000,321.477264 1857.000000,357.798615 
	C1857.000000,359.368652 1857.000000,360.938690 1857.000000,363.152405 
	C1849.468262,352.597443 1842.255249,342.764160 1835.330444,332.731995 
	C1815.817627,304.464020 1796.458618,276.089905 1776.944824,247.822525 
	C1773.931274,243.457016 1770.913330,238.928238 1764.500732,238.964050 
	C1746.174072,239.066360 1727.846436,238.983444 1709.519165,239.011765 
	C1704.974609,239.018784 1702.009155,242.064957 1702.008301,246.697723 
	C1701.996338,316.174805 1701.995117,385.651917 1702.008545,455.128998 
	C1702.009644,461.026428 1704.023682,462.984802 1710.017822,462.992828 
	C1725.845947,463.014069 1741.674072,463.005219 1757.502197,462.997253 
	C1763.363281,462.994293 1764.997681,461.322571 1764.998169,455.344574 
	C1765.001587,414.857910 1764.997559,374.371277 1765.009644,333.884613 
	C1765.010132,332.367950 1765.151733,330.851349 1765.269043,328.503540 
	C1778.637207,348.452850 1791.407227,367.599548 1804.270630,386.683258 
	C1820.404907,410.619476 1836.646851,434.483154 1852.755493,458.436554 
	C1854.831909,461.524323 1857.331177,463.058685 1861.085571,463.035370 
	C1875.246948,462.947327 1889.413086,463.189117 1903.569458,462.908691 
	C1909.390015,462.793396 1915.190430,461.666687 1921.000000,461.000000 
	C1921.000000,667.639099 1921.000000,874.278137 1921.000000,1080.958618 
	C1281.113037,1080.958618 641.226013,1080.958618 1.000000,1080.958618 
	C1.000000,911.969238 1.000000,742.938232 1.365705,573.152344 
	C2.153100,573.234863 2.810219,574.032104 2.960592,574.915649 
	C4.752757,585.445007 5.820299,596.144897 8.335132,606.494568 
	C14.408692,631.490112 23.332928,655.421082 35.507584,678.221375 
	C49.391460,704.222717 66.872284,727.465881 87.252480,748.548889 
	C94.748383,756.303284 102.960518,763.546509 111.653793,769.921204 
	C125.812302,780.303284 140.123917,790.664856 155.300079,799.425476 
	C176.469833,811.645996 199.260864,820.409912 223.011581,826.558899 
	C243.369217,831.829346 264.006683,835.359741 285.008575,835.890869 
	C304.119537,836.374084 323.311523,836.798889 342.221222,832.975525 
	C355.950470,830.199646 369.808868,827.821472 383.279602,824.078125 
	C395.866028,820.580505 408.017548,815.517761 420.337830,811.144165 
	C420.315186,811.144348 420.345459,811.145264 420.669128,810.840820 
	C430.548767,805.612244 440.297302,801.024902 449.621460,795.695068 
	C470.291809,783.879700 489.253601,769.621826 506.271088,753.008911 
	C515.423035,744.074402 524.245422,734.587891 531.856323,724.340210 
	C542.797729,709.608093 553.627136,694.578308 562.479309,678.556702 
	C577.868469,650.703491 588.544861,620.880066 592.929871,589.172485 
	C595.119690,573.338013 596.588928,557.389526 597.871155,541.451416 
	C598.341980,535.599243 597.473145,529.616333 596.970276,523.713928 
	C596.082458,513.293518 595.677856,502.769684 593.849487,492.506714 
	C591.227234,477.787292 588.154785,463.081482 584.109497,448.697540 
	C577.786987,426.216766 567.982910,405.114471 555.987976,385.074188 
	C545.550232,367.635529 533.803223,351.106384 519.769958,336.375793 
	C505.806519,321.718628 491.214233,307.761383 474.608307,295.946198 
	C455.902588,282.636963 436.312866,270.886566 415.129211,262.193939 
	C397.788788,255.078384 380.038666,248.654160 361.369476,245.821075 
	C344.011475,243.186966 326.595184,240.019821 309.118011,239.351959 
	C292.435211,238.714478 275.612549,240.666336 258.903351,242.090118 
	C241.978577,243.532257 225.591965,247.801498 209.395981,252.886826 
	C191.286148,258.573059 173.958511,265.910858 157.192123,274.869141 
	C135.483444,286.468079 115.611397,300.579529 97.538757,317.127228 
	C78.873131,334.217896 62.504997,353.374481 48.735676,374.708649 
	C36.490055,393.681976 26.284292,413.651062 18.602310,434.880188 
	C10.844148,456.319855 5.175814,478.270630 2.921277,501.030975 
	C2.850673,501.743744 1.665544,502.346161 1.000000,503.000000 
M862.112122,464.969360 
	C862.861450,464.651733 863.608398,464.063843 864.360474,464.057281 
	C875.023499,463.964294 884.508179,460.122162 893.626831,455.038361 
	C907.548645,447.276611 917.888489,436.332733 924.175171,421.540680 
	C928.425171,411.540710 930.311646,401.420776 929.147766,390.466797 
	C928.088013,380.493530 925.899475,371.074066 920.246887,362.761841 
	C915.599792,355.928131 910.516541,349.390991 905.419922,342.440552 
	C915.643066,328.802032 921.055054,313.210205 918.117126,295.011322 
	C915.917419,281.385010 909.946777,269.664459 900.418457,260.323090 
	C885.757874,245.950119 867.743652,238.818100 846.894165,238.942490 
	C811.747986,239.152206 776.599609,238.999969 741.452148,239.000000 
	C733.254028,239.000015 731.000427,241.236221 731.000366,249.381470 
	C730.999695,317.677490 730.999939,385.973511 731.000122,454.269531 
	C731.000183,462.695221 733.290405,464.996765 741.737488,464.997711 
	C781.549072,465.002136 821.360657,464.998596 862.112122,464.969360 
M1173.014404,619.114563 
	C1173.009521,689.404175 1173.004639,759.693848 1173.000122,829.983459 
	C1172.999512,838.596069 1174.372681,839.997375 1182.880371,839.998230 
	C1221.689575,840.002197 1260.499023,840.031616 1299.307983,839.955017 
	C1303.556641,839.946594 1307.917480,839.818787 1312.032104,838.888000 
	C1330.042603,834.813660 1345.567993,826.588562 1357.029053,811.529114 
	C1373.544800,789.827942 1375.678223,766.402222 1364.303101,742.189087 
	C1360.125366,733.296265 1352.903198,725.833679 1346.944092,717.544067 
	C1347.113525,717.265259 1347.636475,716.038757 1348.471191,715.085449 
	C1363.289795,698.161560 1363.038818,667.231995 1352.271729,649.338257 
	C1338.544800,626.526123 1318.085449,615.173157 1292.687012,614.320312 
	C1255.585205,613.074524 1218.409912,613.911926 1181.268188,614.183228 
	C1178.576416,614.202881 1175.903809,616.836853 1173.014404,619.114563 
M1195.000000,349.500000 
	C1195.000000,384.988556 1195.000000,420.477081 1195.000000,455.965637 
	C1195.000122,463.219208 1196.056152,464.791992 1203.259521,464.915192 
	C1219.083130,465.185883 1234.934204,465.457886 1250.733154,464.777740 
	C1257.226929,464.498169 1259.279907,463.183075 1259.053589,456.238892 
	C1258.814819,448.915710 1259.000000,441.578674 1259.000000,434.247711 
	C1259.000000,419.630920 1259.000000,405.014130 1259.000000,390.000549 
	C1267.171631,390.000549 1274.960693,389.888306 1282.739502,390.119019 
	C1283.934692,390.154480 1285.480103,391.529236 1286.184570,392.695007 
	C1289.424805,398.056030 1292.383301,403.586273 1295.517700,409.012634 
	C1304.999756,425.428131 1314.638916,441.754639 1323.941528,458.270935 
	C1326.570801,462.938965 1329.988770,465.064850 1335.254150,465.036133 
	C1352.747925,464.940613 1370.242554,465.013184 1387.736938,464.975586 
	C1389.177734,464.972473 1390.725464,464.900146 1392.039185,464.387604 
	C1396.961792,462.466980 1397.430908,458.306335 1393.677490,452.194061 
	C1390.396484,446.850983 1387.163208,441.476562 1384.017212,436.053070 
	C1375.551758,421.459198 1367.133667,406.837891 1358.719849,392.214172 
	C1355.721313,387.002319 1352.789185,381.752258 1349.775146,376.428345 
	C1351.835083,375.092590 1353.486450,374.091064 1355.066162,372.986969 
	C1379.358154,356.009094 1393.225952,333.987946 1389.018677,303.124298 
	C1386.296387,283.152893 1376.014648,267.766205 1360.260864,255.836517 
	C1346.683105,245.554718 1331.157715,239.425354 1314.200317,239.171936 
	C1277.053955,238.616760 1239.893433,238.989624 1202.738770,239.010635 
	C1196.830444,239.013962 1195.000977,240.973343 1195.000732,247.032654 
	C1194.999146,280.855103 1195.000000,314.677551 1195.000000,349.500000 
M1604.952393,447.559052 
	C1605.587646,447.044250 1606.156494,446.400818 1606.868042,446.033539 
	C1623.998169,437.191681 1638.041992,424.462250 1648.447021,408.620697 
	C1661.608765,388.581482 1667.989990,366.362946 1665.210083,341.785797 
	C1663.804932,329.362366 1660.448242,317.763428 1655.155029,306.710510 
	C1645.001953,285.510071 1628.935547,269.604492 1608.707397,258.041290 
	C1578.872681,240.986557 1546.554077,235.884277 1513.120361,242.291626 
	C1484.290405,247.816711 1458.995850,260.814697 1439.467041,283.862152 
	C1425.008789,300.925751 1416.175537,320.262115 1414.176880,342.342957 
	C1412.832764,357.192596 1414.610352,371.877899 1419.873291,386.178345 
	C1429.714478,412.918365 1447.865967,432.137756 1472.201050,445.979248 
	C1488.381104,455.182404 1505.717529,461.143250 1524.433838,461.911713 
	C1536.576782,462.410278 1548.886841,463.095276 1560.888794,461.696167 
	C1576.047363,459.929108 1590.544067,454.811584 1604.952393,447.559052 
M928.482117,773.013123 
	C920.199829,791.949585 912.131104,810.983887 903.518738,829.769043 
	C900.528198,836.291870 901.761658,839.943787 910.149536,839.979614 
	C926.474976,840.049194 942.800903,840.021179 959.126526,839.986206 
	C963.644104,839.976501 967.143555,838.480835 969.067688,833.850769 
	C973.360046,823.522217 977.941284,813.313721 982.429321,803.000000 
	C1011.427734,803.000000 1040.242188,803.062195 1069.055420,802.916992 
	C1072.443848,802.899902 1073.076416,804.983398 1074.014771,807.221191 
	C1077.420898,815.343567 1080.859131,823.452759 1084.207764,831.598694 
	C1086.826538,837.969177 1089.779663,839.996338 1096.851074,839.998596 
	C1111.510864,840.003296 1126.171631,839.890320 1140.829956,840.036438 
	C1151.640015,840.144226 1155.903687,838.660339 1149.521973,825.827393 
	C1143.243652,813.202393 1137.726196,800.193115 1132.057007,787.272583 
	C1122.853638,766.297852 1113.855957,745.232727 1104.659668,724.254883 
	C1099.252441,711.920166 1093.554199,699.713257 1088.119629,687.390320 
	C1078.358154,665.256592 1068.738525,643.060242 1058.959595,620.934326 
	C1056.878418,616.225525 1052.995605,613.978210 1047.793213,613.990295 
	C1034.965942,614.020081 1022.136230,614.147827 1009.312256,613.942871 
	C1001.970215,613.825562 997.028564,615.928284 993.905151,623.461060 
	C985.191589,644.475708 975.623718,665.134766 966.512451,685.986389 
	C953.938965,714.761841 941.474670,743.585022 928.482117,773.013123 
M1421.997681,715.494568 
	C1426.858398,719.309326 1431.461304,723.523254 1436.629272,726.862549 
	C1451.021606,736.162231 1467.013550,741.849182 1483.215454,747.166504 
	C1492.139893,750.095398 1500.925049,753.799377 1509.216431,758.202087 
	C1516.616455,762.131348 1518.397095,768.245300 1515.986328,775.097168 
	C1513.736816,781.490417 1508.794922,784.977051 1502.740845,786.945129 
	C1489.292358,791.316895 1476.254517,788.858337 1464.293579,782.452026 
	C1455.250366,777.608582 1447.104980,771.063538 1438.673462,765.115173 
	C1435.055908,762.563110 1430.132812,762.057068 1426.927124,764.639648 
	C1423.991577,767.004517 1421.271240,769.634460 1418.400879,772.082947 
	C1412.061279,777.490723 1405.809937,783.012817 1399.287354,788.192078 
	C1394.126709,792.289978 1393.702515,796.027527 1398.323120,800.856384 
	C1410.730957,813.823303 1425.401001,823.461609 1441.878540,830.389160 
	C1455.552002,836.137695 1469.749146,840.198669 1484.660400,839.853394 
	C1495.916382,839.592773 1507.329834,838.948364 1518.335327,836.769226 
	C1534.133301,833.641052 1548.714966,826.962769 1560.625977,815.764587 
	C1574.853149,802.388977 1581.950195,786.186646 1581.220215,766.117432 
	C1580.535889,747.300842 1572.822754,733.366150 1557.541504,722.841187 
	C1538.228760,709.539612 1515.716431,704.333069 1494.023193,697.032898 
	C1486.097046,694.365662 1477.741333,692.512451 1471.741577,686.160034 
	C1465.060913,679.086426 1467.647827,671.978149 1473.685547,668.299683 
	C1482.177368,663.125977 1491.815674,662.798584 1501.504028,664.912537 
	C1511.859619,667.172058 1520.470703,672.716309 1528.638794,679.128845 
	C1537.198853,685.849304 1539.812012,685.678955 1547.589722,677.904297 
	C1554.660645,670.836121 1561.733154,663.769592 1568.800903,656.698242 
	C1573.335327,652.161316 1573.391602,647.820190 1568.700195,643.223694 
	C1558.109497,632.846924 1545.250244,626.070374 1531.513672,621.097229 
	C1516.611328,615.701965 1501.148926,614.149231 1485.224365,614.797668 
	C1472.579956,615.312500 1460.312134,616.736633 1448.391968,620.995789 
	C1432.647217,626.621460 1419.042114,635.218079 1411.274658,650.520508 
	C1401.426025,669.922852 1403.723267,697.187073 1421.997681,715.494568 
M1084.000000,399.500000 
	C1084.000000,392.003784 1083.916748,384.505920 1084.064087,377.012573 
	C1084.096802,375.346771 1084.612549,373.501312 1085.463623,372.070343 
	C1092.934692,359.509521 1100.482910,346.993835 1108.103149,334.522705 
	C1121.350464,312.842407 1134.661011,291.200745 1147.954102,269.548401 
	C1153.661865,260.251221 1159.392212,250.967865 1165.660034,240.788818 
	C1163.132935,240.106277 1161.088135,239.086502 1159.036621,239.072845 
	C1140.380249,238.948685 1121.713379,239.334808 1103.070068,238.824341 
	C1096.243896,238.637436 1092.721313,241.219208 1089.915527,247.012360 
	C1080.448853,266.559021 1070.662109,285.951019 1060.950195,305.378479 
	C1058.328247,310.623291 1055.538818,315.784302 1052.781616,321.069550 
	C1044.512329,305.056671 1036.439697,289.498932 1028.439209,273.904266 
	C1023.589966,264.452240 1018.812683,254.962723 1014.084412,245.449631 
	C1012.280823,241.820938 1010.360779,238.900986 1005.532654,238.936630 
	C985.210632,239.086594 964.886841,238.976624 944.564087,239.057739 
	C943.336914,239.062637 941.445312,239.586578 941.051147,240.426575 
	C940.519104,241.560547 940.660889,243.527847 941.336792,244.634918 
	C954.490295,266.179413 967.761292,287.652191 981.013489,309.136414 
	C992.666504,328.028137 1004.360168,346.894989 1015.955261,365.822205 
	C1018.394958,369.804565 1020.225037,373.783539 1020.157166,378.938782 
	C1019.814941,404.921173 1019.992859,430.910522 1020.005554,456.897430 
	C1020.008301,462.565125 1021.876831,464.941406 1026.784546,464.966614 
	C1043.609009,465.053070 1060.434448,465.050812 1077.258911,464.966858 
	C1081.959473,464.943390 1083.991333,462.673737 1083.994507,457.971039 
	C1084.007690,438.814026 1084.000000,419.657013 1084.000000,399.500000 
M847.500000,840.000000 
	C859.331482,840.000000 871.162964,840.017517 882.994385,839.992798 
	C889.213318,839.979736 891.997131,837.220032 891.998901,831.164673 
	C892.002502,819.000000 892.000183,806.835266 891.999817,794.670593 
	C891.999634,787.517395 889.496521,785.003357 882.329895,785.002075 
	C855.000977,784.997131 827.672119,785.000000 800.343201,785.000000 
	C798.593811,785.000000 796.844360,785.000000 795.000000,785.000000 
	C795.000000,782.485596 795.000000,780.659058 795.000000,778.832520 
	C795.000000,727.340881 795.003540,675.849182 794.995850,624.357544 
	C794.994812,617.368408 791.643127,614.010986 784.673218,614.004456 
	C769.342346,613.989990 754.011475,613.977234 738.680664,614.011536 
	C732.813293,614.024658 730.001770,616.879028 730.001587,622.660339 
	C729.999146,692.149109 729.999146,761.637817 730.001404,831.126587 
	C730.001648,838.324219 731.706116,839.998657 739.017395,839.999084 
	C774.844910,840.001221 810.672485,840.000000 847.500000,840.000000 
z"/>
<path fill="#FFFFFF" opacity="1.000000" stroke="none" 
	d="
M420.360474,811.143921 
	C408.017548,815.517761 395.866028,820.580505 383.279602,824.078125 
	C369.808868,827.821472 355.950470,830.199646 342.221222,832.975525 
	C323.311523,836.798889 304.119537,836.374084 285.008575,835.890869 
	C264.006683,835.359741 243.369217,831.829346 223.011581,826.558899 
	C199.260864,820.409912 176.469833,811.645996 155.300079,799.425476 
	C140.123917,790.664856 125.812302,780.303284 111.653793,769.921204 
	C102.960518,763.546509 94.748383,756.303284 87.252480,748.548889 
	C66.872284,727.465881 49.391460,704.222717 35.507584,678.221375 
	C23.332928,655.421082 14.408692,631.490112 8.335132,606.494568 
	C5.820299,596.144897 4.752757,585.445007 2.960592,574.915649 
	C2.810219,574.032104 2.153100,573.234863 1.365705,572.698730 
	C1.000000,549.979126 1.000000,526.958191 1.000000,503.468658 
	C1.665544,502.346161 2.850673,501.743744 2.921277,501.030975 
	C5.175814,478.270630 10.844148,456.319855 18.602310,434.880188 
	C26.284292,413.651062 36.490055,393.681976 48.735676,374.708649 
	C62.504997,353.374481 78.873131,334.217896 97.538757,317.127228 
	C115.611397,300.579529 135.483444,286.468079 157.192123,274.869141 
	C173.958511,265.910858 191.286148,258.573059 209.395981,252.886826 
	C225.591965,247.801498 241.978577,243.532257 258.903351,242.090118 
	C275.612549,240.666336 292.435211,238.714478 309.118011,239.351959 
	C326.595184,240.019821 344.011475,243.186966 361.369476,245.821075 
	C380.038666,248.654160 397.788788,255.078384 415.129211,262.193939 
	C436.312866,270.886566 455.902588,282.636963 474.608307,295.946198 
	C491.214233,307.761383 505.806519,321.718628 519.769958,336.375793 
	C533.803223,351.106384 545.550232,367.635529 555.987976,385.074188 
	C567.982910,405.114471 577.786987,426.216766 584.109497,448.697540 
	C588.154785,463.081482 591.227234,477.787292 593.849487,492.506714 
	C595.677856,502.769684 596.082458,513.293518 596.970276,523.713928 
	C597.473145,529.616333 598.341980,535.599243 597.871155,541.451416 
	C596.588928,557.389526 595.119690,573.338013 592.929871,589.172485 
	C588.544861,620.880066 577.868469,650.703491 562.479309,678.556702 
	C553.627136,694.578308 542.797729,709.608093 531.856323,724.340210 
	C524.245422,734.587891 515.423035,744.074402 506.271088,753.008911 
	C489.253601,769.621826 470.291809,783.879700 449.621460,795.695068 
	C440.297302,801.024902 430.548767,805.612244 420.431274,810.409485 
	C419.450256,808.020447 419.526550,805.509155 418.534332,803.534973 
	C408.985046,784.535339 399.121246,765.693420 389.617432,746.671448 
	C380.871948,729.167297 376.295197,710.526123 379.319366,691.071472 
	C382.321167,671.760620 383.838806,652.006592 398.056519,635.894714 
	C407.488434,625.206299 411.505859,611.169617 413.123566,596.856079 
	C414.195221,587.373840 417.701019,580.320190 427.108582,575.795776 
	C441.064789,569.083740 448.836304,557.207825 449.013245,541.484802 
	C449.213531,523.687744 457.076965,510.711182 471.834137,501.359589 
	C475.053040,499.319733 478.057892,496.886536 480.932526,494.372833 
	C484.657196,491.115753 486.880127,486.814148 485.755188,481.910736 
	C483.309418,471.249969 486.214966,462.469421 493.074982,454.166931 
	C498.487854,447.615875 497.105957,439.147949 490.784302,434.254944 
	C489.271942,433.084351 487.475586,432.280731 485.772003,431.286224 
	C486.856232,428.128296 488.042114,425.190155 488.876831,422.155457 
	C492.852936,407.700195 490.126282,398.082062 475.990906,394.995605 
	C472.089783,394.143799 470.350739,391.073669 470.167755,387.213837 
	C470.065460,385.055817 470.183075,382.882996 470.282532,380.720551 
	C470.887146,367.580200 464.907379,359.179077 452.043701,355.968018 
	C446.988556,354.706116 441.689941,354.419403 436.078735,353.628967 
	C439.657959,349.558960 441.001007,345.221985 438.015594,340.395325 
	C434.970581,335.472229 430.320801,333.779266 424.812439,333.963104 
	C422.657928,334.034973 420.479950,334.187592 418.367493,334.590851 
	C411.524384,335.897095 404.706726,337.336548 397.974426,338.705353 
	C386.386353,323.616516 371.341431,317.783295 353.035950,322.763458 
	C335.374420,327.568481 323.905792,339.307037 319.001465,357.273804 
	C307.515289,352.905457 297.369324,354.211670 288.408539,362.268127 
	C285.819824,364.595612 283.093842,364.614807 280.192139,362.773773 
	C275.290375,359.663727 270.090149,359.643402 264.896790,361.807800 
	C261.074097,363.400940 257.432098,365.421936 253.651077,367.122101 
	C247.793747,369.755890 241.854309,372.076599 234.927185,370.428314 
	C236.578522,365.550110 236.408020,361.496063 231.687408,358.910187 
	C224.779922,355.126404 210.885605,358.223328 206.160599,364.375000 
	C205.194656,365.632599 203.451462,366.864746 201.946121,367.033325 
	C196.641235,367.627441 192.558350,370.226440 190.487793,374.829620 
	C186.292938,384.155334 179.645538,390.353668 170.177444,394.179108 
	C165.591461,396.031982 162.817703,400.114807 161.827438,405.301483 
	C161.402420,407.527740 160.396698,409.998840 158.863190,411.600891 
	C147.692505,423.270752 136.220032,434.651520 125.037483,446.310272 
	C111.828461,460.081726 100.378242,475.111237 92.650635,492.749298 
	C87.924126,503.537415 87.282059,513.457947 96.592209,522.544495 
	C98.425652,524.333862 99.508255,528.657898 98.712791,531.083496 
	C94.201286,544.840149 98.639259,557.099304 104.575829,568.967285 
	C106.076210,571.966797 109.846870,574.260315 113.081596,575.838379 
	C116.141495,577.331177 119.867737,577.458069 123.723030,578.275208 
	C121.730682,580.660583 120.113159,582.529419 118.568977,584.457031 
	C109.046646,596.343933 110.554260,605.848328 123.526085,613.869263 
	C126.151337,615.492493 126.126442,616.871460 125.383537,619.473450 
	C121.700798,632.372070 123.118286,644.142761 131.783142,655.213745 
	C135.813705,660.363586 138.685364,667.070374 140.047592,673.502258 
	C141.964523,682.553345 142.002441,692.003845 142.820541,701.285645 
	C144.043228,715.157654 151.627686,724.300415 164.685928,727.954041 
	C171.882004,729.967529 179.751862,730.490601 187.263367,730.212219 
	C195.491974,729.907288 203.657669,727.904907 212.590393,726.528198 
	C214.695618,731.417480 217.584427,736.323303 218.934875,741.621338 
	C222.198685,754.425720 219.836594,767.111694 216.434464,779.556335 
	C212.896973,792.496155 208.997650,805.337036 205.181534,818.479553 
	C206.826477,818.978943 208.183701,819.390991 209.950134,819.927307 
	C213.669495,807.291199 217.632065,794.962402 220.902985,782.452820 
	C225.917374,763.275208 229.406754,744.029236 217.457153,725.274841 
	C232.748291,722.664368 246.024200,715.958496 258.887878,708.397766 
	C270.557892,701.538635 282.543793,695.700195 295.939789,692.889099 
	C305.195038,690.946960 312.556305,685.570190 316.640472,677.015930 
	C321.540131,666.753601 325.568451,656.075195 330.123962,645.219849 
	C328.032227,644.511719 326.692261,644.058044 325.096588,643.517822 
	C321.711243,652.148499 318.405243,660.450562 315.195923,668.789856 
	C310.904846,679.940125 302.903198,686.146606 291.282349,689.194641 
	C282.069366,691.611145 272.952362,695.210938 264.538666,699.687256 
	C247.083862,708.973633 230.052612,718.826416 209.946426,721.620728 
	C197.458344,723.356262 185.234146,727.151733 172.381363,725.016174 
	C157.469864,722.538391 149.409546,714.335693 147.712006,699.367004 
	C147.262222,695.401001 147.122528,691.393677 146.977951,687.400330 
	C146.467209,673.294617 143.496201,660.211304 133.943314,649.000793 
	C126.167809,639.876099 127.849739,629.278992 130.826889,618.533936 
	C139.865845,621.852539 141.337509,631.010498 146.822464,637.151123 
	C144.842743,621.681824 143.090927,618.979980 130.967972,612.373230 
	C114.411217,603.350098 113.664253,597.869568 125.997772,583.349609 
	C133.630890,574.363281 141.204956,565.182068 147.548645,555.282959 
	C154.970383,543.701477 158.470062,530.701233 155.918381,516.682190 
	C155.835754,516.228333 155.515762,515.817688 155.240906,515.252136 
	C153.795120,515.610291 152.412186,515.952820 151.100403,516.277771 
	C151.963440,536.254578 145.701050,554.701111 135.084610,563.876892 
	C134.127304,559.337891 133.437439,554.710693 132.134232,550.263184 
	C130.789078,545.672546 129.259186,541.043030 127.066612,536.816284 
	C124.057228,531.014832 122.541107,525.125427 123.246567,519.462158 
	C130.701279,515.039429 137.597168,516.154541 144.157684,521.035034 
	C145.084610,519.074707 145.691803,517.790588 146.370758,516.354736 
	C139.128418,512.566223 132.301910,508.199463 123.728233,513.861511 
	C125.161652,503.557281 126.659752,493.557800 129.090225,483.790375 
	C134.089828,463.698303 141.185593,444.346405 152.835648,427.062012 
	C157.541504,420.080261 162.718658,412.453461 171.175095,410.142273 
	C183.431946,406.792358 199.934570,408.470795 208.035263,422.651459 
	C210.261185,426.548065 212.700027,430.324615 214.878113,434.246765 
	C224.944977,452.374603 239.397736,465.965332 257.427185,476.009338 
	C259.343353,477.076782 261.180969,479.245117 261.921661,481.309418 
	C267.417816,496.626892 272.580505,512.063599 277.942657,527.429749 
	C281.615662,537.955444 288.910339,545.053406 299.101013,549.359802 
	C315.959381,556.483765 332.633759,554.067810 349.266785,548.511353 
	C351.061188,547.911926 352.864868,547.340271 354.664246,546.755737 
	C350.765350,553.042725 349.021637,559.176453 350.943176,566.601135 
	C352.507263,566.443054 353.993439,566.292847 354.609436,566.230591 
	C355.459930,561.737427 355.285217,557.570129 357.027313,554.485352 
	C361.017365,547.420166 367.413513,542.754822 375.470306,541.141907 
	C386.794617,538.874756 395.070801,545.453491 395.967346,557.043030 
	C396.224365,560.365417 396.256104,563.707153 396.573944,567.022461 
	C398.814056,590.389221 391.205933,608.885986 370.166016,620.826965 
	C367.132904,622.548340 364.352753,624.792053 361.187439,626.184509 
	C357.115692,627.975647 352.861633,629.567932 348.525360,630.488708 
	C342.807373,631.703064 339.024292,627.604980 340.450806,621.919006 
	C341.247314,618.744263 342.867096,615.776123 344.267548,612.343140 
	C343.128021,611.639893 341.827240,610.837158 339.976166,609.694824 
	C338.408813,613.532593 336.673859,616.780945 335.744934,620.245544 
	C333.115417,630.052979 339.891968,637.494446 349.797424,635.322205 
	C355.233826,634.130066 360.543854,631.947510 365.597229,629.550354 
	C369.842377,627.536560 373.633484,624.565613 377.810089,621.900696 
	C379.665283,625.988037 381.339478,629.782227 383.102722,633.534607 
	C385.305603,638.222534 385.246948,642.725159 383.924438,647.869995 
	C380.207184,662.330811 376.355255,676.858765 374.222137,691.601318 
	C370.902344,714.545044 377.920074,735.692993 388.339081,755.864258 
	C396.726898,772.103210 405.183563,788.307007 413.489502,804.587708 
	C415.062225,807.670471 415.738129,811.386475 420.360474,811.143921 
M237.342606,517.994873 
	C241.073135,520.397156 244.803665,522.799438 248.707092,525.313110 
	C249.619827,524.156311 250.502274,523.037964 251.362198,521.948120 
	C232.086411,503.182556 198.162216,502.139465 179.210373,519.588684 
	C180.166779,520.700745 181.125961,521.815979 182.062286,522.904724 
	C203.951691,510.127014 217.397125,508.856995 237.342606,517.994873 
z"/>
<path fill="#FFFFFF" opacity="1.000000" stroke="none" 
	d="
M1921.000000,460.531372 
	C1915.190430,461.666687 1909.390015,462.793396 1903.569458,462.908691 
	C1889.413086,463.189117 1875.246948,462.947327 1861.085571,463.035370 
	C1857.331177,463.058685 1854.831909,461.524323 1852.755493,458.436554 
	C1836.646851,434.483154 1820.404907,410.619476 1804.270630,386.683258 
	C1791.407227,367.599548 1778.637207,348.452850 1765.269043,328.503540 
	C1765.151733,330.851349 1765.010132,332.367950 1765.009644,333.884613 
	C1764.997559,374.371277 1765.001587,414.857910 1764.998169,455.344574 
	C1764.997681,461.322571 1763.363281,462.994293 1757.502197,462.997253 
	C1741.674072,463.005219 1725.845947,463.014069 1710.017822,462.992828 
	C1704.023682,462.984802 1702.009644,461.026428 1702.008545,455.128998 
	C1701.995117,385.651917 1701.996338,316.174805 1702.008301,246.697723 
	C1702.009155,242.064957 1704.974609,239.018784 1709.519165,239.011765 
	C1727.846436,238.983444 1746.174072,239.066360 1764.500732,238.964050 
	C1770.913330,238.928238 1773.931274,243.457016 1776.944824,247.822525 
	C1796.458618,276.089905 1815.817627,304.464020 1835.330444,332.731995 
	C1842.255249,342.764160 1849.468262,352.597443 1857.000000,363.152405 
	C1857.000000,360.938690 1857.000000,359.368652 1857.000000,357.798615 
	C1857.000000,321.477264 1856.998291,285.155914 1857.001343,248.834549 
	C1857.001953,241.624832 1859.562866,239.006027 1866.625000,239.002228 
	C1880.620361,238.994675 1894.619995,238.813095 1908.608521,239.119873 
	C1912.537354,239.206024 1916.434204,240.743088 1920.672852,241.307312 
	C1921.000000,314.020905 1921.000000,387.041779 1921.000000,460.531372 
z"/>
<path fill="#FFFFFF" opacity="1.000000" stroke="none" 
	d="
M861.642212,464.983643 
	C821.360657,464.998596 781.549072,465.002136 741.737488,464.997711 
	C733.290405,464.996765 731.000183,462.695221 731.000122,454.269531 
	C730.999939,385.973511 730.999695,317.677490 731.000366,249.381470 
	C731.000427,241.236221 733.254028,239.000015 741.452148,239.000000 
	C776.599609,238.999969 811.747986,239.152206 846.894165,238.942490 
	C867.743652,238.818100 885.757874,245.950119 900.418457,260.323090 
	C909.946777,269.664459 915.917419,281.385010 918.117126,295.011322 
	C921.055054,313.210205 915.643066,328.802032 905.419922,342.440552 
	C910.516541,349.390991 915.599792,355.928131 920.246887,362.761841 
	C925.899475,371.074066 928.088013,380.493530 929.147766,390.466797 
	C930.311646,401.420776 928.425171,411.540710 924.175171,421.540680 
	C917.888489,436.332733 907.548645,447.276611 893.626831,455.038361 
	C884.508179,460.122162 875.023499,463.964294 864.360474,464.057281 
	C863.608398,464.063843 862.861450,464.651733 861.642212,464.983643 
M839.154297,418.999939 
	C847.505371,417.916290 854.635315,414.762695 859.241211,407.254822 
	C869.365845,390.751282 859.151306,372.813660 844.250977,370.538239 
	C828.621948,368.151550 812.345398,370.004395 796.205139,370.004395 
	C796.205139,385.837982 796.205139,402.227631 796.205139,419.000000 
	C810.344421,419.000000 824.281982,419.000000 839.154297,418.999939 
M798.680542,327.999756 
	C808.820190,327.999847 818.965637,328.208160 829.097473,327.927338 
	C835.932922,327.737854 842.686890,326.134003 847.884705,321.475983 
	C854.440308,315.601044 856.735718,307.799866 853.668396,299.530762 
	C850.588257,291.226959 843.737610,285.827362 835.073608,285.230957 
	C822.220703,284.346222 809.261780,285.001953 796.003601,285.001953 
	C796.003601,299.029266 795.981812,312.620056 796.076050,326.210022 
	C796.080139,326.809113 797.143677,327.400879 798.680542,327.999756 
z"/>
<path fill="#FFFFFF" opacity="1.000000" stroke="none" 
	d="
M1173.118408,618.684937 
	C1175.903809,616.836853 1178.576416,614.202881 1181.268188,614.183228 
	C1218.409912,613.911926 1255.585205,613.074524 1292.687012,614.320312 
	C1318.085449,615.173157 1338.544800,626.526123 1352.271729,649.338257 
	C1363.038818,667.231995 1363.289795,698.161560 1348.471191,715.085449 
	C1347.636475,716.038757 1347.113525,717.265259 1346.944092,717.544067 
	C1352.903198,725.833679 1360.125366,733.296265 1364.303101,742.189087 
	C1375.678223,766.402222 1373.544800,789.827942 1357.029053,811.529114 
	C1345.567993,826.588562 1330.042603,834.813660 1312.032104,838.888000 
	C1307.917480,839.818787 1303.556641,839.946594 1299.307983,839.955017 
	C1260.499023,840.031616 1221.689575,840.002197 1182.880371,839.998230 
	C1174.372681,839.997375 1172.999512,838.596069 1173.000122,829.983459 
	C1173.004639,759.693848 1173.009521,689.404175 1173.118408,618.684937 
M1266.495850,744.000000 
	C1256.734009,744.000000 1246.972046,744.000000 1237.283447,744.000000 
	C1237.283447,760.975037 1237.283447,777.376221 1237.283447,794.000000 
	C1249.871094,794.000000 1262.177246,794.078735 1274.481201,793.954102 
	C1278.380981,793.914673 1282.411743,793.861328 1286.145630,792.897095 
	C1296.062988,790.335815 1303.177368,782.088745 1304.884888,772.047607 
	C1306.479370,762.671753 1299.475708,751.809265 1291.835449,747.802734 
	C1283.933472,743.658813 1275.781128,744.080139 1266.495850,744.000000 
M1287.549683,664.958557 
	C1285.006592,663.638672 1282.491699,661.245300 1279.915405,661.177246 
	C1265.756958,660.803467 1251.583374,660.998840 1237.357422,660.998840 
	C1237.357422,674.567871 1237.357422,688.747253 1237.357422,702.002380 
	C1250.775024,702.002380 1263.855103,702.502625 1276.874756,701.832642 
	C1286.091431,701.358398 1293.004395,696.120605 1295.424316,686.932800 
	C1297.663330,678.432251 1295.298950,670.825134 1287.549683,664.958557 
z"/>
<path fill="#FFFFFF" opacity="1.000000" stroke="none" 
	d="
M1195.000000,349.000000 
	C1195.000000,314.677551 1194.999146,280.855103 1195.000732,247.032654 
	C1195.000977,240.973343 1196.830444,239.013962 1202.738770,239.010635 
	C1239.893433,238.989624 1277.053955,238.616760 1314.200317,239.171936 
	C1331.157715,239.425354 1346.683105,245.554718 1360.260864,255.836517 
	C1376.014648,267.766205 1386.296387,283.152893 1389.018677,303.124298 
	C1393.225952,333.987946 1379.358154,356.009094 1355.066162,372.986969 
	C1353.486450,374.091064 1351.835083,375.092590 1349.775146,376.428345 
	C1352.789185,381.752258 1355.721313,387.002319 1358.719849,392.214172 
	C1367.133667,406.837891 1375.551758,421.459198 1384.017212,436.053070 
	C1387.163208,441.476562 1390.396484,446.850983 1393.677490,452.194061 
	C1397.430908,458.306335 1396.961792,462.466980 1392.039185,464.387604 
	C1390.725464,464.900146 1389.177734,464.972473 1387.736938,464.975586 
	C1370.242554,465.013184 1352.747925,464.940613 1335.254150,465.036133 
	C1329.988770,465.064850 1326.570801,462.938965 1323.941528,458.270935 
	C1314.638916,441.754639 1304.999756,425.428131 1295.517700,409.012634 
	C1292.383301,403.586273 1289.424805,398.056030 1286.184570,392.695007 
	C1285.480103,391.529236 1283.934692,390.154480 1282.739502,390.119019 
	C1274.960693,389.888306 1267.171631,390.000549 1259.000000,390.000549 
	C1259.000000,405.014130 1259.000000,419.630920 1259.000000,434.247711 
	C1259.000000,441.578674 1258.814819,448.915710 1259.053589,456.238892 
	C1259.279907,463.183075 1257.226929,464.498169 1250.733154,464.777740 
	C1234.934204,465.457886 1219.083130,465.185883 1203.259521,464.915192 
	C1196.056152,464.791992 1195.000122,463.219208 1195.000000,455.965637 
	C1195.000000,420.477081 1195.000000,384.988556 1195.000000,349.000000 
M1321.054688,305.497040 
	C1318.806763,297.343964 1313.166626,291.931091 1305.654663,289.226196 
	C1300.613525,287.411041 1294.846558,287.404785 1289.374390,287.038361 
	C1279.385010,286.369476 1269.373535,286.033783 1259.366455,285.558838 
	C1259.366455,304.615204 1259.366455,322.779419 1259.366455,340.000641 
	C1272.623657,340.000641 1285.509399,340.057159 1298.394165,339.986145 
	C1314.087280,339.899658 1327.571045,321.780670 1321.054688,305.497040 
z"/>
<path fill="#FFFFFF" opacity="1.000000" stroke="none" 
	d="
M1604.627930,447.765137 
	C1590.544067,454.811584 1576.047363,459.929108 1560.888794,461.696167 
	C1548.886841,463.095276 1536.576782,462.410278 1524.433838,461.911713 
	C1505.717529,461.143250 1488.381104,455.182404 1472.201050,445.979248 
	C1447.865967,432.137756 1429.714478,412.918365 1419.873291,386.178345 
	C1414.610352,371.877899 1412.832764,357.192596 1414.176880,342.342957 
	C1416.175537,320.262115 1425.008789,300.925751 1439.467041,283.862152 
	C1458.995850,260.814697 1484.290405,247.816711 1513.120361,242.291626 
	C1546.554077,235.884277 1578.872681,240.986557 1608.707397,258.041290 
	C1628.935547,269.604492 1645.001953,285.510071 1655.155029,306.710510 
	C1660.448242,317.763428 1663.804932,329.362366 1665.210083,341.785797 
	C1667.989990,366.362946 1661.608765,388.581482 1648.447021,408.620697 
	C1638.041992,424.462250 1623.998169,437.191681 1606.868042,446.033539 
	C1606.156494,446.400818 1605.587646,447.044250 1604.627930,447.765137 
M1479.000000,347.307800 
	C1479.000000,350.458557 1478.873535,353.615265 1479.021118,356.759094 
	C1479.833008,374.054016 1488.417480,387.167969 1502.046509,396.882904 
	C1513.529907,405.068390 1526.608032,408.408356 1540.959351,408.167297 
	C1559.635132,407.853577 1575.245483,401.686798 1587.776978,387.747253 
	C1602.259277,371.637756 1605.506592,352.584808 1598.283325,333.182800 
	C1586.213745,300.763794 1555.505371,291.015106 1527.804199,295.270325 
	C1513.728149,297.432617 1501.539062,304.372437 1492.161743,315.409180 
	C1484.586060,324.325500 1479.499023,334.423401 1479.000000,347.307800 
z"/>
<path fill="#FFFFFF" opacity="1.000000" stroke="none" 
	d="
M928.722900,772.700439 
	C941.474670,743.585022 953.938965,714.761841 966.512451,685.986389 
	C975.623718,665.134766 985.191589,644.475708 993.905151,623.461060 
	C997.028564,615.928284 1001.970215,613.825562 1009.312256,613.942871 
	C1022.136230,614.147827 1034.965942,614.020081 1047.793213,613.990295 
	C1052.995605,613.978210 1056.878418,616.225525 1058.959595,620.934326 
	C1068.738525,643.060242 1078.358154,665.256592 1088.119629,687.390320 
	C1093.554199,699.713257 1099.252441,711.920166 1104.659668,724.254883 
	C1113.855957,745.232727 1122.853638,766.297852 1132.057007,787.272583 
	C1137.726196,800.193115 1143.243652,813.202393 1149.521973,825.827393 
	C1155.903687,838.660339 1151.640015,840.144226 1140.829956,840.036438 
	C1126.171631,839.890320 1111.510864,840.003296 1096.851074,839.998596 
	C1089.779663,839.996338 1086.826538,837.969177 1084.207764,831.598694 
	C1080.859131,823.452759 1077.420898,815.343567 1074.014771,807.221191 
	C1073.076416,804.983398 1072.443848,802.899902 1069.055420,802.916992 
	C1040.242188,803.062195 1011.427734,803.000000 982.429321,803.000000 
	C977.941284,813.313721 973.360046,823.522217 969.067688,833.850769 
	C967.143555,838.480835 963.644104,839.976501 959.126526,839.986206 
	C942.800903,840.021179 926.474976,840.049194 910.149536,839.979614 
	C901.761658,839.943787 900.528198,836.291870 903.518738,829.769043 
	C912.131104,810.983887 920.199829,791.949585 928.722900,772.700439 
M1022.501709,754.000000 
	C1032.612671,754.000000 1042.723633,754.000000 1053.542847,754.000000 
	C1045.432983,731.710693 1037.536133,710.006714 1029.639282,688.302734 
	C1029.276855,688.287720 1028.914551,688.272705 1028.552124,688.257629 
	C1020.783508,710.026794 1013.014832,731.795959 1005.091003,754.000000 
	C1010.643311,754.000000 1016.072998,754.000000 1022.501709,754.000000 
z"/>
<path fill="#FFFFFF" opacity="1.000000" stroke="none" 
	d="
M1421.738281,715.240540 
	C1403.723267,697.187073 1401.426025,669.922852 1411.274658,650.520508 
	C1419.042114,635.218079 1432.647217,626.621460 1448.391968,620.995789 
	C1460.312134,616.736633 1472.579956,615.312500 1485.224365,614.797668 
	C1501.148926,614.149231 1516.611328,615.701965 1531.513672,621.097229 
	C1545.250244,626.070374 1558.109497,632.846924 1568.700195,643.223694 
	C1573.391602,647.820190 1573.335327,652.161316 1568.800903,656.698242 
	C1561.733154,663.769592 1554.660645,670.836121 1547.589722,677.904297 
	C1539.812012,685.678955 1537.198853,685.849304 1528.638794,679.128845 
	C1520.470703,672.716309 1511.859619,667.172058 1501.504028,664.912537 
	C1491.815674,662.798584 1482.177368,663.125977 1473.685547,668.299683 
	C1467.647827,671.978149 1465.060913,679.086426 1471.741577,686.160034 
	C1477.741333,692.512451 1486.097046,694.365662 1494.023193,697.032898 
	C1515.716431,704.333069 1538.228760,709.539612 1557.541504,722.841187 
	C1572.822754,733.366150 1580.535889,747.300842 1581.220215,766.117432 
	C1581.950195,786.186646 1574.853149,802.388977 1560.625977,815.764587 
	C1548.714966,826.962769 1534.133301,833.641052 1518.335327,836.769226 
	C1507.329834,838.948364 1495.916382,839.592773 1484.660400,839.853394 
	C1469.749146,840.198669 1455.552002,836.137695 1441.878540,830.389160 
	C1425.401001,823.461609 1410.730957,813.823303 1398.323120,800.856384 
	C1393.702515,796.027527 1394.126709,792.289978 1399.287354,788.192078 
	C1405.809937,783.012817 1412.061279,777.490723 1418.400879,772.082947 
	C1421.271240,769.634460 1423.991577,767.004517 1426.927124,764.639648 
	C1430.132812,762.057068 1435.055908,762.563110 1438.673462,765.115173 
	C1447.104980,771.063538 1455.250366,777.608582 1464.293579,782.452026 
	C1476.254517,788.858337 1489.292358,791.316895 1502.740845,786.945129 
	C1508.794922,784.977051 1513.736816,781.490417 1515.986328,775.097168 
	C1518.397095,768.245300 1516.616455,762.131348 1509.216431,758.202087 
	C1500.925049,753.799377 1492.139893,750.095398 1483.215454,747.166504 
	C1467.013550,741.849182 1451.021606,736.162231 1436.629272,726.862549 
	C1431.461304,723.523254 1426.858398,719.309326 1421.738281,715.240540 
z"/>
<path fill="#FFFFFF" opacity="1.000000" stroke="none" 
	d="
M1084.000000,400.000000 
	C1084.000000,419.657013 1084.007690,438.814026 1083.994507,457.971039 
	C1083.991333,462.673737 1081.959473,464.943390 1077.258911,464.966858 
	C1060.434448,465.050812 1043.609009,465.053070 1026.784546,464.966614 
	C1021.876831,464.941406 1020.008301,462.565125 1020.005554,456.897430 
	C1019.992859,430.910522 1019.814941,404.921173 1020.157166,378.938782 
	C1020.225037,373.783539 1018.394958,369.804565 1015.955261,365.822205 
	C1004.360168,346.894989 992.666504,328.028137 981.013489,309.136414 
	C967.761292,287.652191 954.490295,266.179413 941.336792,244.634918 
	C940.660889,243.527847 940.519104,241.560547 941.051147,240.426575 
	C941.445312,239.586578 943.336914,239.062637 944.564087,239.057739 
	C964.886841,238.976624 985.210632,239.086594 1005.532654,238.936630 
	C1010.360779,238.900986 1012.280823,241.820938 1014.084412,245.449631 
	C1018.812683,254.962723 1023.589966,264.452240 1028.439209,273.904266 
	C1036.439697,289.498932 1044.512329,305.056671 1052.781616,321.069550 
	C1055.538818,315.784302 1058.328247,310.623291 1060.950195,305.378479 
	C1070.662109,285.951019 1080.448853,266.559021 1089.915527,247.012360 
	C1092.721313,241.219208 1096.243896,238.637436 1103.070068,238.824341 
	C1121.713379,239.334808 1140.380249,238.948685 1159.036621,239.072845 
	C1161.088135,239.086502 1163.132935,240.106277 1165.660034,240.788818 
	C1159.392212,250.967865 1153.661865,260.251221 1147.954102,269.548401 
	C1134.661011,291.200745 1121.350464,312.842407 1108.103149,334.522705 
	C1100.482910,346.993835 1092.934692,359.509521 1085.463623,372.070343 
	C1084.612549,373.501312 1084.096802,375.346771 1084.064087,377.012573 
	C1083.916748,384.505920 1084.000000,392.003784 1084.000000,400.000000 
z"/>
<path fill="#FFFFFF" opacity="1.000000" stroke="none" 
	d="
M847.000000,840.000000 
	C810.672485,840.000000 774.844910,840.001221 739.017395,839.999084 
	C731.706116,839.998657 730.001648,838.324219 730.001404,831.126587 
	C729.999146,761.637817 729.999146,692.149109 730.001587,622.660339 
	C730.001770,616.879028 732.813293,614.024658 738.680664,614.011536 
	C754.011475,613.977234 769.342346,613.989990 784.673218,614.004456 
	C791.643127,614.010986 794.994812,617.368408 794.995850,624.357544 
	C795.003540,675.849182 795.000000,727.340881 795.000000,778.832520 
	C795.000000,780.659058 795.000000,782.485596 795.000000,785.000000 
	C796.844360,785.000000 798.593811,785.000000 800.343201,785.000000 
	C827.672119,785.000000 855.000977,784.997131 882.329895,785.002075 
	C889.496521,785.003357 891.999634,787.517395 891.999817,794.670593 
	C892.000183,806.835266 892.002502,819.000000 891.998901,831.164673 
	C891.997131,837.220032 889.213318,839.979736 882.994385,839.992798 
	C871.162964,840.017517 859.331482,840.000000 847.000000,840.000000 
z"/>
<path fill="#000000" opacity="0" stroke="none" 
	d="
M420.337830,811.144165 
	C415.738129,811.386475 415.062225,807.670471 413.489502,804.587708 
	C405.183563,788.307007 396.726898,772.103210 388.339081,755.864258 
	C377.920074,735.692993 370.902344,714.545044 374.222137,691.601318 
	C376.355255,676.858765 380.207184,662.330811 383.924438,647.869995 
	C385.246948,642.725159 385.305603,638.222534 383.102722,633.534607 
	C381.339478,629.782227 379.665283,625.988037 377.810089,621.900696 
	C373.633484,624.565613 369.842377,627.536560 365.597229,629.550354 
	C360.543854,631.947510 355.233826,634.130066 349.797424,635.322205 
	C339.891968,637.494446 333.115417,630.052979 335.744934,620.245544 
	C336.673859,616.780945 338.408813,613.532593 339.976166,609.694824 
	C341.827240,610.837158 343.128021,611.639893 344.267548,612.343140 
	C342.867096,615.776123 341.247314,618.744263 340.450806,621.919006 
	C339.024292,627.604980 342.807373,631.703064 348.525360,630.488708 
	C352.861633,629.567932 357.115692,627.975647 361.187439,626.184509 
	C364.352753,624.792053 367.132904,622.548340 370.166016,620.826965 
	C391.205933,608.885986 398.814056,590.389221 396.573944,567.022461 
	C396.256104,563.707153 396.224365,560.365417 395.967346,557.043030 
	C395.070801,545.453491 386.794617,538.874756 375.470306,541.141907 
	C367.413513,542.754822 361.017365,547.420166 357.027313,554.485352 
	C355.285217,557.570129 355.459930,561.737427 354.609436,566.230591 
	C353.993439,566.292847 352.507263,566.443054 350.943176,566.601135 
	C349.021637,559.176453 350.765350,553.042725 354.664246,546.755737 
	C352.864868,547.340271 351.061188,547.911926 349.266785,548.511353 
	C332.633759,554.067810 315.959381,556.483765 299.101013,549.359802 
	C288.910339,545.053406 281.615662,537.955444 277.942657,527.429749 
	C272.580505,512.063599 267.417816,496.626892 261.921661,481.309418 
	C261.180969,479.245117 259.343353,477.076782 257.427185,476.009338 
	C239.397736,465.965332 224.944977,452.374603 214.878113,434.246765 
	C212.700027,430.324615 210.261185,426.548065 208.035263,422.651459 
	C199.934570,408.470795 183.431946,406.792358 171.175095,410.142273 
	C162.718658,412.453461 157.541504,420.080261 152.835648,427.062012 
	C141.185593,444.346405 134.089828,463.698303 129.090225,483.790375 
	C126.659752,493.557800 125.161652,503.557281 123.728233,513.861511 
	C132.301910,508.199463 139.128418,512.566223 146.370758,516.354736 
	C145.691803,517.790588 145.084610,519.074707 144.157684,521.035034 
	C137.597168,516.154541 130.701279,515.039429 123.246567,519.462158 
	C122.541107,525.125427 124.057228,531.014832 127.066612,536.816284 
	C129.259186,541.043030 130.789078,545.672546 132.134232,550.263184 
	C133.437439,554.710693 134.127304,559.337891 135.084610,563.876892 
	C145.701050,554.701111 151.963440,536.254578 151.100403,516.277771 
	C152.412186,515.952820 153.795120,515.610291 155.240906,515.252136 
	C155.515762,515.817688 155.835754,516.228333 155.918381,516.682190 
	C158.470062,530.701233 154.970383,543.701477 147.548645,555.282959 
	C141.204956,565.182068 133.630890,574.363281 125.997772,583.349609 
	C113.664253,597.869568 114.411217,603.350098 130.967972,612.373230 
	C143.090927,618.979980 144.842743,621.681824 146.822464,637.151123 
	C141.337509,631.010498 139.865845,621.852539 130.826889,618.533936 
	C127.849739,629.278992 126.167809,639.876099 133.943314,649.000793 
	C143.496201,660.211304 146.467209,673.294617 146.977951,687.400330 
	C147.122528,691.393677 147.262222,695.401001 147.712006,699.367004 
	C149.409546,714.335693 157.469864,722.538391 172.381363,725.016174 
	C185.234146,727.151733 197.458344,723.356262 209.946426,721.620728 
	C230.052612,718.826416 247.083862,708.973633 264.538666,699.687256 
	C272.952362,695.210938 282.069366,691.611145 291.282349,689.194641 
	C302.903198,686.146606 310.904846,679.940125 315.195923,668.789856 
	C318.405243,660.450562 321.711243,652.148499 325.096588,643.517822 
	C326.692261,644.058044 328.032227,644.511719 330.123962,645.219849 
	C325.568451,656.075195 321.540131,666.753601 316.640472,677.015930 
	C312.556305,685.570190 305.195038,690.946960 295.939789,692.889099 
	C282.543793,695.700195 270.557892,701.538635 258.887878,708.397766 
	C246.024200,715.958496 232.748291,722.664368 217.457153,725.274841 
	C229.406754,744.029236 225.917374,763.275208 220.902985,782.452820 
	C217.632065,794.962402 213.669495,807.291199 209.950134,819.927307 
	C208.183701,819.390991 206.826477,818.978943 205.181534,818.479553 
	C208.997650,805.337036 212.896973,792.496155 216.434464,779.556335 
	C219.836594,767.111694 222.198685,754.425720 218.934875,741.621338 
	C217.584427,736.323303 214.695618,731.417480 212.590393,726.528198 
	C203.657669,727.904907 195.491974,729.907288 187.263367,730.212219 
	C179.751862,730.490601 171.882004,729.967529 164.685928,727.954041 
	C151.627686,724.300415 144.043228,715.157654 142.820541,701.285645 
	C142.002441,692.003845 141.964523,682.553345 140.047592,673.502258 
	C138.685364,667.070374 135.813705,660.363586 131.783142,655.213745 
	C123.118286,644.142761 121.700798,632.372070 125.383537,619.473450 
	C126.126442,616.871460 126.151337,615.492493 123.526085,613.869263 
	C110.554260,605.848328 109.046646,596.343933 118.568977,584.457031 
	C120.113159,582.529419 121.730682,580.660583 123.723030,578.275208 
	C119.867737,577.458069 116.141495,577.331177 113.081596,575.838379 
	C109.846870,574.260315 106.076210,571.966797 104.575829,568.967285 
	C98.639259,557.099304 94.201286,544.840149 98.712791,531.083496 
	C99.508255,528.657898 98.425652,524.333862 96.592209,522.544495 
	C87.282059,513.457947 87.924126,503.537415 92.650635,492.749298 
	C100.378242,475.111237 111.828461,460.081726 125.037483,446.310272 
	C136.220032,434.651520 147.692505,423.270752 158.863190,411.600891 
	C160.396698,409.998840 161.402420,407.527740 161.827438,405.301483 
	C162.817703,400.114807 165.591461,396.031982 170.177444,394.179108 
	C179.645538,390.353668 186.292938,384.155334 190.487793,374.829620 
	C192.558350,370.226440 196.641235,367.627441 201.946121,367.033325 
	C203.451462,366.864746 205.194656,365.632599 206.160599,364.375000 
	C210.885605,358.223328 224.779922,355.126404 231.687408,358.910187 
	C236.408020,361.496063 236.578522,365.550110 234.927185,370.428314 
	C241.854309,372.076599 247.793747,369.755890 253.651077,367.122101 
	C257.432098,365.421936 261.074097,363.400940 264.896790,361.807800 
	C270.090149,359.643402 275.290375,359.663727 280.192139,362.773773 
	C283.093842,364.614807 285.819824,364.595612 288.408539,362.268127 
	C297.369324,354.211670 307.515289,352.905457 319.001465,357.273804 
	C323.905792,339.307037 335.374420,327.568481 353.035950,322.763458 
	C371.341431,317.783295 386.386353,323.616516 397.974426,338.705353 
	C404.706726,337.336548 411.524384,335.897095 418.367493,334.590851 
	C420.479950,334.187592 422.657928,334.034973 424.812439,333.963104 
	C430.320801,333.779266 434.970581,335.472229 438.015594,340.395325 
	C441.001007,345.221985 439.657959,349.558960 436.078735,353.628967 
	C441.689941,354.419403 446.988556,354.706116 452.043701,355.968018 
	C464.907379,359.179077 470.887146,367.580200 470.282532,380.720551 
	C470.183075,382.882996 470.065460,385.055817 470.167755,387.213837 
	C470.350739,391.073669 472.089783,394.143799 475.990906,394.995605 
	C490.126282,398.082062 492.852936,407.700195 488.876831,422.155457 
	C488.042114,425.190155 486.856232,428.128296 485.772003,431.286224 
	C487.475586,432.280731 489.271942,433.084351 490.784302,434.254944 
	C497.105957,439.147949 498.487854,447.615875 493.074982,454.166931 
	C486.214966,462.469421 483.309418,471.249969 485.755188,481.910736 
	C486.880127,486.814148 484.657196,491.115753 480.932526,494.372833 
	C478.057892,496.886536 475.053040,499.319733 471.834137,501.359589 
	C457.076965,510.711182 449.213531,523.687744 449.013245,541.484802 
	C448.836304,557.207825 441.064789,569.083740 427.108582,575.795776 
	C417.701019,580.320190 414.195221,587.373840 413.123566,596.856079 
	C411.505859,611.169617 407.488434,625.206299 398.056519,635.894714 
	C383.838806,652.006592 382.321167,671.760620 379.319366,691.071472 
	C376.295197,710.526123 380.871948,729.167297 389.617432,746.671448 
	C399.121246,765.693420 408.985046,784.535339 418.534332,803.534973 
	C419.526550,805.509155 419.450256,808.020447 420.107605,810.713867 
	C420.345459,811.145264 420.315186,811.144348 420.337830,811.144165 
M137.141083,441.024048 
	C134.126907,444.130920 131.063187,447.191467 128.107132,450.352722 
	C115.311409,464.036499 103.991943,478.724365 96.695686,496.196136 
	C93.188828,504.593689 92.939667,512.232971 100.340027,518.923767 
	C104.259491,522.467468 105.489098,527.341248 103.796989,532.215637 
	C100.256104,542.415833 103.042458,551.663574 106.329887,561.305359 
	C109.037857,569.247681 114.177666,572.162170 121.841621,572.655334 
	C127.789345,573.038086 130.500595,571.336548 129.535950,565.521606 
	C128.110275,556.927612 126.425301,548.086731 122.925934,540.205627 
	C119.191963,531.796143 117.590912,523.666443 118.488091,514.632874 
	C121.027176,489.067383 128.051224,464.786469 139.025284,440.900421 
	C138.888962,440.535828 138.752640,440.171234 138.616318,439.806641 
	C138.328415,440.121521 138.040497,440.436432 137.141083,441.024048 
M313.250366,439.260468 
	C313.250366,439.260468 313.543182,439.525421 313.283569,440.182495 
	C307.663147,451.945770 307.663147,451.945770 310.344910,455.227661 
	C311.717346,452.454285 312.561310,449.754211 314.205170,447.691742 
	C316.046814,445.381165 318.572113,442.128204 320.874084,442.066864 
	C323.464996,441.997864 327.281677,444.415833 328.580536,446.822906 
	C334.545349,457.876984 343.646179,463.020813 355.890289,464.196625 
	C359.331146,464.527069 362.556824,467.280334 365.841522,468.998077 
	C368.514740,470.396057 370.971863,472.610199 373.797455,473.240601 
	C383.484802,475.401917 387.358002,480.168182 386.457642,490.157349 
	C386.054657,494.628265 385.194366,499.057556 384.777832,503.527771 
	C384.342285,508.202332 385.641327,511.985779 390.451477,514.057739 
	C394.360168,515.741333 396.010590,519.110474 396.044525,523.304382 
	C396.067413,526.137146 396.217468,528.974304 396.105530,531.801453 
	C395.898743,537.022949 396.164032,541.824463 400.379700,545.945862 
	C402.346680,547.868896 403.203461,551.192017 403.959320,554.040833 
	C406.473053,563.515259 408.712860,573.062500 411.057800,582.582214 
	C411.239441,582.324341 411.694946,581.862244 411.928406,581.306824 
	C412.374847,580.244568 412.877380,579.155579 413.039673,578.031860 
	C414.875305,565.320984 418.063629,552.996887 422.737762,541.006226 
	C424.705566,535.958191 423.170898,531.183350 420.750793,526.222839 
	C418.681915,521.982300 418.299225,516.833130 417.645813,512.021301 
	C417.271790,509.266968 418.079285,506.372223 417.939606,503.561371 
	C417.722900,499.201019 416.056915,495.822693 411.044830,495.272797 
	C406.186279,494.739716 404.465546,491.500092 403.928223,487.063599 
	C402.509003,475.345520 396.010651,469.366333 384.224213,468.712677 
	C383.496704,468.672333 382.778473,468.463959 381.844025,468.295593 
	C383.081146,465.458496 384.423370,463.125763 385.061310,460.614166 
	C385.398224,459.287750 384.508087,457.649658 384.171936,456.152283 
	C382.999054,456.823059 381.516327,457.234070 380.701965,458.205444 
	C373.815491,466.420197 367.218750,465.621979 362.591705,455.742401 
	C360.836365,451.994354 359.407196,448.070160 358.120087,444.131256 
	C355.664307,436.615631 351.020966,431.631500 343.203461,429.462341 
	C339.577576,428.456238 335.977264,426.840759 332.813873,424.804657 
	C327.882690,421.630676 327.844971,418.357452 332.049164,414.322327 
	C333.129669,413.285278 334.682831,412.408600 335.145447,411.139801 
	C335.795044,409.358154 335.628235,407.278839 335.810608,405.326843 
	C334.179993,406.016754 332.440369,406.531281 330.954987,407.454773 
	C329.863403,408.133423 329.175049,409.426331 328.185333,410.309082 
	C324.238464,413.829468 321.625031,413.817505 317.349976,410.355682 
	C319.384827,402.577118 315.733826,396.568176 307.656525,395.968475 
	C302.815918,395.609070 297.725647,396.486298 292.960815,397.667633 
	C282.549316,400.248993 279.791016,398.603149 278.497650,387.701843 
	C271.546631,388.706451 264.375122,388.380951 259.529541,382.954285 
	C253.814377,376.553711 247.207306,375.448669 239.333115,376.091003 
	C232.053802,376.684814 228.674759,374.115875 225.574615,366.795044 
	C227.447617,366.795044 229.138641,366.795044 231.667847,366.795044 
	C230.591080,365.164368 230.199707,363.949158 229.370575,363.420563 
	C225.099991,360.697906 213.386169,363.472931 210.159027,367.493286 
	C208.697357,369.314209 206.498581,371.674530 204.545151,371.760223 
	C198.379852,372.030609 195.182770,375.542450 192.959106,380.512482 
	C189.446945,388.362396 183.688889,393.587158 175.774109,396.978119 
	C172.366486,398.438049 169.603180,401.401855 165.894516,404.169464 
	C175.880432,402.913513 184.540771,400.734589 193.134384,400.971832 
	C210.659546,401.455750 228.148788,403.241272 245.716003,404.495087 
	C245.584732,406.197968 244.596954,409.219788 245.365173,411.697083 
	C246.195496,414.374603 248.293839,417.110535 250.617172,418.635895 
	C251.464966,419.192535 255.065125,416.761902 256.519501,414.971191 
	C261.522827,408.810638 265.613617,409.585144 269.728302,416.485901 
	C273.930481,423.533417 279.310974,429.888336 284.304321,436.448486 
	C285.914459,438.563904 287.869476,438.642212 290.363251,437.198090 
	C294.938965,434.548340 299.787415,432.369507 304.522186,429.994354 
	C304.858765,430.361450 305.195343,430.728546 305.531921,431.095642 
	C302.884308,435.441559 300.148376,439.737671 297.651062,444.168274 
	C297.024963,445.279022 297.165619,446.821930 296.953857,448.166199 
	C298.351349,448.355804 299.856140,448.954529 301.117096,448.623749 
	C302.467163,448.269501 303.665039,447.131073 304.792847,446.174072 
	C307.562744,443.823700 310.254181,441.380920 313.250366,439.260468 
M291.582428,442.342346 
	C287.972443,445.061157 284.712280,444.206604 282.001617,441.070465 
	C277.026581,435.314392 272.079834,429.521637 267.415009,423.516022 
	C265.670441,421.270050 264.746246,418.386902 263.069397,415.038177 
	C259.059113,420.303589 255.842041,426.167236 248.432632,423.610596 
	C241.547150,421.234680 240.288681,415.171692 239.781387,409.659760 
	C225.433319,408.420471 211.590759,407.224854 197.748199,406.029205 
	C205.847351,410.231598 210.851776,417.132843 215.179413,424.679199 
	C216.915771,427.707031 218.637100,430.744385 220.427734,433.740051 
	C234.014908,456.470795 253.562119,471.736328 278.941437,478.986481 
	C288.566589,481.736053 298.713684,482.658783 308.974060,484.476410 
	C308.939087,485.191742 308.870514,486.595001 308.799164,488.054565 
	C294.378174,488.953400 281.002533,485.551178 267.154846,480.704651 
	C272.397522,496.022675 277.232605,510.337158 282.198242,524.606262 
	C287.264587,539.164734 298.433502,546.317688 312.968323,547.924011 
	C336.634796,550.539368 357.234772,543.455811 374.392181,526.116516 
	C375.468750,527.050476 376.616516,528.046143 377.854279,529.119934 
	C375.611145,531.684692 373.712769,533.855286 372.143433,535.649597 
	C377.965698,536.057007 383.691345,536.457642 390.588196,536.940186 
	C390.689270,532.497925 391.002258,527.325623 390.787079,522.175476 
	C390.733154,520.884155 389.245331,519.096802 387.968048,518.504822 
	C380.919617,515.238159 379.157318,509.415680 379.785889,502.411865 
	C380.172272,498.106842 381.077087,493.846252 381.415405,489.539490 
	C381.994843,482.163330 379.815063,479.871979 372.729553,478.164154 
	C369.360260,477.352051 365.683685,475.845825 363.283600,473.493622 
	C360.457977,470.724457 357.718994,469.141449 353.828644,468.839661 
	C341.355408,467.872009 331.765228,462.166382 325.389404,451.205017 
	C324.397400,449.499573 322.621185,448.250275 321.207642,446.790039 
	C320.139557,448.390106 319.056793,449.980682 318.013519,451.596710 
	C317.747284,452.009094 317.720490,452.621887 317.388916,452.938812 
	C314.990295,455.231506 312.794037,458.790833 310.030579,459.319550 
	C307.739716,459.757874 304.761749,456.604858 302.088165,455.042877 
	C292.967987,454.149445 290.244873,451.336456 292.448975,442.765717 
	C292.351318,442.590607 292.253632,442.415466 292.155975,442.240326 
	C292.057556,442.306488 291.866089,442.397400 291.876007,442.434723 
	C291.934448,442.654114 292.039856,442.861023 291.582428,442.342346 
M334.766052,418.859955 
	C338.410767,420.925323 341.845947,423.612061 345.743927,424.926147 
	C353.760773,427.628815 359.173920,432.631683 362.099792,440.471954 
	C363.551483,444.361938 364.884888,448.300476 366.467773,452.136169 
	C369.677643,459.914459 372.116547,460.350494 377.364075,454.101105 
	C379.621552,451.412598 382.339020,449.901001 385.688141,451.220062 
	C389.350159,452.662354 390.777191,455.819305 390.501373,459.682617 
	C390.408936,460.977051 390.053864,462.252686 389.781464,463.741180 
	C401.279510,467.466431 408.075165,474.891998 409.200897,487.164429 
	C409.316254,488.422089 411.608612,490.145233 413.148285,490.484802 
	C418.156738,491.589447 421.316711,494.559998 422.165405,499.342194 
	C422.880035,503.369080 422.274139,507.614532 422.772400,511.699860 
	C423.298126,516.010193 423.571381,520.699280 425.510986,524.409424 
	C428.580597,530.281067 429.490631,536.004211 427.693817,542.181641 
	C426.536560,546.160339 424.696716,549.943787 423.590759,553.933350 
	C421.769135,560.504639 420.294220,567.172058 418.458557,574.676208 
	C434.406342,567.591492 443.935181,557.230286 444.079712,540.338135 
	C444.240936,521.492798 452.865082,507.683746 468.384308,497.667694 
	C470.897095,496.045959 473.224274,494.136627 475.637909,492.361176 
	C479.944122,489.193665 481.595917,485.249481 480.447021,479.764130 
	C478.500488,470.470612 480.638977,462.047180 486.632538,454.481842 
	C493.530945,445.774384 493.146301,443.208069 484.886505,436.015961 
	C484.702698,435.855927 484.559357,435.649384 484.321503,435.378296 
	C479.732788,444.284363 475.529541,453.574921 463.261627,454.287048 
	C463.261627,452.480255 463.261627,451.059143 463.261627,449.458344 
	C469.708069,448.817108 473.841187,444.984558 476.250854,439.638336 
	C479.446899,432.547455 482.586945,425.326202 484.654602,417.857422 
	C487.528137,407.477692 485.207733,403.902405 475.094513,400.108185 
	C467.840454,397.386719 465.169250,393.603027 465.068329,385.805115 
	C465.044617,383.974091 465.149384,382.140564 465.223572,380.309326 
	C465.651672,369.736694 461.520447,363.558929 451.169189,361.047302 
	C445.747833,359.731842 439.983856,359.744537 434.360321,359.375397 
	C430.530182,359.123962 428.730377,356.671631 430.281555,353.130524 
	C430.802521,351.941193 431.790649,350.952698 432.586395,349.888184 
	C435.727264,345.686707 434.674713,341.234528 429.592194,339.857483 
	C426.361359,338.982117 422.642273,339.053467 419.298340,339.620911 
	C411.183044,340.998016 403.159027,342.912933 395.220367,344.585449 
	C385.899323,329.682800 372.056458,323.560333 356.011353,327.032959 
	C339.670715,330.569519 326.203766,344.397339 324.301788,359.458649 
	C333.135468,365.428558 341.912262,371.360077 350.895844,377.431305 
	C349.697327,378.992493 348.821320,380.133606 347.884186,381.354370 
	C339.877960,376.036743 332.240265,370.716919 324.358124,365.787933 
	C313.143372,358.774963 301.979034,356.636047 290.975891,366.617828 
	C287.332458,369.923065 282.764954,370.261627 278.465363,367.517151 
	C274.235352,364.817108 269.981323,364.901398 265.642914,366.901581 
	C262.043457,368.561157 258.534637,370.417358 253.796585,372.779175 
	C259.905060,376.468384 264.915588,381.415680 270.600067,382.376801 
	C276.073181,383.302185 282.243042,380.106720 287.813080,378.791168 
	C286.634247,382.022186 284.991333,385.513550 284.125519,389.187988 
	C283.289490,392.736053 284.763916,394.716187 288.831146,393.455902 
	C291.370605,392.669006 293.930420,391.888123 296.535065,391.382355 
	C304.622131,389.811951 312.740631,389.303009 318.794586,396.158142 
	C321.359985,399.063019 322.645416,403.098236 324.584839,406.755981 
	C325.801788,405.465851 327.227020,403.867371 328.746002,402.363617 
	C331.512360,399.625000 334.792114,398.505798 338.181396,400.831787 
	C341.726501,403.264648 343.033051,407.003662 341.030640,410.902344 
	C339.635437,413.618805 337.193054,415.797424 334.766052,418.859955 
M386.939758,629.606384 
	C387.981323,632.380310 389.022919,635.154236 390.597015,639.346313 
	C391.183350,637.938477 391.322571,637.237061 391.711151,636.724731 
	C401.626282,623.651794 406.919739,608.798279 408.741608,592.608337 
	C408.831146,591.812744 408.964691,590.689941 408.532959,590.219055 
	C404.026611,585.304504 404.869995,579.042603 404.034821,573.194397 
	C403.759399,571.265503 403.204254,569.376526 402.777008,567.469360 
	C402.285004,587.268066 399.963379,605.840515 381.793793,618.291565 
	C383.492523,622.026306 385.058105,625.468262 386.939758,629.606384 
z"/>
<path fill="#0D0D0D" opacity="1.000000" stroke="none" 
	d="
M237.004135,517.830444 
	C217.397125,508.856995 203.951691,510.127014 182.062286,522.904724 
	C181.125961,521.815979 180.166779,520.700745 179.210373,519.588684 
	C198.162216,502.139465 232.086411,503.182556 251.362198,521.948120 
	C250.502274,523.037964 249.619827,524.156311 248.707092,525.313110 
	C244.803665,522.799438 241.073135,520.397156 237.004135,517.830444 
z"/>
<path fill="#000000" opacity="0" stroke="none" 
	d="
M838.686951,418.999969 
	C824.281982,419.000000 810.344421,419.000000 796.205139,419.000000 
	C796.205139,402.227631 796.205139,385.837982 796.205139,370.004395 
	C812.345398,370.004395 828.621948,368.151550 844.250977,370.538239 
	C859.151306,372.813660 869.365845,390.751282 859.241211,407.254822 
	C854.635315,414.762695 847.505371,417.916290 838.686951,418.999969 
z"/>
<path fill="#000000" opacity="0" stroke="none" 
	d="
M798.197144,327.997894 
	C797.143677,327.400879 796.080139,326.809113 796.076050,326.210022 
	C795.981812,312.620056 796.003601,299.029266 796.003601,285.001953 
	C809.261780,285.001953 822.220703,284.346222 835.073608,285.230957 
	C843.737610,285.827362 850.588257,291.226959 853.668396,299.530762 
	C856.735718,307.799866 854.440308,315.601044 847.884705,321.475983 
	C842.686890,326.134003 835.932922,327.737854 829.097473,327.927338 
	C818.965637,328.208160 808.820190,327.999847 798.197144,327.997894 
z"/>
<path fill="#000000" opacity="0" stroke="none" 
	d="
M1266.994507,744.000000 
	C1275.781128,744.080139 1283.933472,743.658813 1291.835449,747.802734 
	C1299.475708,751.809265 1306.479370,762.671753 1304.884888,772.047607 
	C1303.177368,782.088745 1296.062988,790.335815 1286.145630,792.897095 
	C1282.411743,793.861328 1278.380981,793.914673 1274.481201,793.954102 
	C1262.177246,794.078735 1249.871094,794.000000 1237.283447,794.000000 
	C1237.283447,777.376221 1237.283447,760.975037 1237.283447,744.000000 
	C1246.972046,744.000000 1256.734009,744.000000 1266.994507,744.000000 
z"/>
<path fill="#000000" opacity="0" stroke="none" 
	d="
M1321.339844,305.800049 
	C1327.571045,321.780670 1314.087280,339.899658 1298.394165,339.986145 
	C1285.509399,340.057159 1272.623657,340.000641 1259.366455,340.000641 
	C1259.366455,322.779419 1259.366455,304.615204 1259.366455,285.558838 
	C1269.373535,286.033783 1279.385010,286.369476 1289.374390,287.038361 
	C1294.846558,287.404785 1300.613525,287.411041 1305.654663,289.226196 
	C1313.166626,291.931091 1318.806763,297.343964 1321.339844,305.800049 
z"/>
<path fill="#000000" opacity="0" stroke="none" 
	d="
M1479.000000,346.856689 
	C1479.499023,334.423401 1484.586060,324.325500 1492.161743,315.409180 
	C1501.539062,304.372437 1513.728149,297.432617 1527.804199,295.270325 
	C1555.505371,291.015106 1586.213745,300.763794 1598.283325,333.182800 
	C1605.506592,352.584808 1602.259277,371.637756 1587.776978,387.747253 
	C1575.245483,401.686798 1559.635132,407.853577 1540.959351,408.167297 
	C1526.608032,408.408356 1513.529907,405.068390 1502.046509,396.882904 
	C1488.417480,387.167969 1479.833008,374.054016 1479.021118,356.759094 
	C1478.873535,353.615265 1479.000000,350.458557 1479.000000,346.856689 
z"/>
<path fill="#000000" opacity="0" stroke="none" 
	d="
M1022.002197,754.000000 
	C1016.072998,754.000000 1010.643311,754.000000 1005.091003,754.000000 
	C1013.014832,731.795959 1020.783508,710.026794 1028.552124,688.257629 
	C1028.914551,688.272705 1029.276855,688.287720 1029.639282,688.302734 
	C1037.536133,710.006714 1045.432983,731.710693 1053.542847,754.000000 
	C1042.723633,754.000000 1032.612671,754.000000 1022.002197,754.000000 
z"/>
<path fill="#FEFEFE" opacity="1.000000" stroke="none" 
	d="
M334.992249,418.538147 
	C337.193054,415.797424 339.635437,413.618805 341.030640,410.902344 
	C343.033051,407.003662 341.726501,403.264648 338.181396,400.831787 
	C334.792114,398.505798 331.512360,399.625000 328.746002,402.363617 
	C327.227020,403.867371 325.801788,405.465851 324.584839,406.755981 
	C322.645416,403.098236 321.359985,399.063019 318.794586,396.158142 
	C312.740631,389.303009 304.622131,389.811951 296.535065,391.382355 
	C293.930420,391.888123 291.370605,392.669006 288.831146,393.455902 
	C284.763916,394.716187 283.289490,392.736053 284.125519,389.187988 
	C284.991333,385.513550 286.634247,382.022186 287.813080,378.791168 
	C282.243042,380.106720 276.073181,383.302185 270.600067,382.376801 
	C264.915588,381.415680 259.905060,376.468384 253.796585,372.779175 
	C258.534637,370.417358 262.043457,368.561157 265.642914,366.901581 
	C269.981323,364.901398 274.235352,364.817108 278.465363,367.517151 
	C282.764954,370.261627 287.332458,369.923065 290.975891,366.617828 
	C301.979034,356.636047 313.143372,358.774963 324.358124,365.787933 
	C332.240265,370.716919 339.877960,376.036743 347.884186,381.354370 
	C348.821320,380.133606 349.697327,378.992493 350.895844,377.431305 
	C341.912262,371.360077 333.135468,365.428558 324.301788,359.458649 
	C326.203766,344.397339 339.670715,330.569519 356.011353,327.032959 
	C372.056458,323.560333 385.899323,329.682800 395.220367,344.585449 
	C403.159027,342.912933 411.183044,340.998016 419.298340,339.620911 
	C422.642273,339.053467 426.361359,338.982117 429.592194,339.857483 
	C434.674713,341.234528 435.727264,345.686707 432.586395,349.888184 
	C431.790649,350.952698 430.802521,351.941193 430.281555,353.130524 
	C428.730377,356.671631 430.530182,359.123962 434.360321,359.375397 
	C439.983856,359.744537 445.747833,359.731842 451.169189,361.047302 
	C461.520447,363.558929 465.651672,369.736694 465.223572,380.309326 
	C465.149384,382.140564 465.044617,383.974091 465.068329,385.805115 
	C465.169250,393.603027 467.840454,397.386719 475.094513,400.108185 
	C485.207733,403.902405 487.528137,407.477692 484.654602,417.857422 
	C482.586945,425.326202 479.446899,432.547455 476.250854,439.638336 
	C473.841187,444.984558 469.708069,448.817108 463.261627,449.458344 
	C463.261627,451.059143 463.261627,452.480255 463.261627,454.287048 
	C475.529541,453.574921 479.732788,444.284363 484.321503,435.378296 
	C484.559357,435.649384 484.702698,435.855927 484.886505,436.015961 
	C493.146301,443.208069 493.530945,445.774384 486.632538,454.481842 
	C480.638977,462.047180 478.500488,470.470612 480.447021,479.764130 
	C481.595917,485.249481 479.944122,489.193665 475.637909,492.361176 
	C473.224274,494.136627 470.897095,496.045959 468.384308,497.667694 
	C452.865082,507.683746 444.240936,521.492798 444.079712,540.338135 
	C443.935181,557.230286 434.406342,567.591492 418.458557,574.676208 
	C420.294220,567.172058 421.769135,560.504639 423.590759,553.933350 
	C424.696716,549.943787 426.536560,546.160339 427.693817,542.181641 
	C429.490631,536.004211 428.580597,530.281067 425.510986,524.409424 
	C423.571381,520.699280 423.298126,516.010193 422.772400,511.699860 
	C422.274139,507.614532 422.880035,503.369080 422.165405,499.342194 
	C421.316711,494.559998 418.156738,491.589447 413.148285,490.484802 
	C411.608612,490.145233 409.316254,488.422089 409.200897,487.164429 
	C408.075165,474.891998 401.279510,467.466431 389.781464,463.741180 
	C390.053864,462.252686 390.408936,460.977051 390.501373,459.682617 
	C390.777191,455.819305 389.350159,452.662354 385.688141,451.220062 
	C382.339020,449.901001 379.621552,451.412598 377.364075,454.101105 
	C372.116547,460.350494 369.677643,459.914459 366.467773,452.136169 
	C364.884888,448.300476 363.551483,444.361938 362.099792,440.471954 
	C359.173920,432.631683 353.760773,427.628815 345.743927,424.926147 
	C341.845947,423.612061 338.410767,420.925323 334.992249,418.538147 
z"/>
<path fill="#FDFDFD" opacity="1.000000" stroke="none" 
	d="
M291.990417,442.993683 
	C290.244873,451.336456 292.967987,454.149445 302.088165,455.042877 
	C304.761749,456.604858 307.739716,459.757874 310.030579,459.319550 
	C312.794037,458.790833 314.990295,455.231506 317.388916,452.938812 
	C317.720490,452.621887 317.747284,452.009094 318.013519,451.596710 
	C319.056793,449.980682 320.139557,448.390106 321.207642,446.790039 
	C322.621185,448.250275 324.397400,449.499573 325.389404,451.205017 
	C331.765228,462.166382 341.355408,467.872009 353.828644,468.839661 
	C357.718994,469.141449 360.457977,470.724457 363.283600,473.493622 
	C365.683685,475.845825 369.360260,477.352051 372.729553,478.164154 
	C379.815063,479.871979 381.994843,482.163330 381.415405,489.539490 
	C381.077087,493.846252 380.172272,498.106842 379.785889,502.411865 
	C379.157318,509.415680 380.919617,515.238159 387.968048,518.504822 
	C389.245331,519.096802 390.733154,520.884155 390.787079,522.175476 
	C391.002258,527.325623 390.689270,532.497925 390.588196,536.940186 
	C383.691345,536.457642 377.965698,536.057007 372.143433,535.649597 
	C373.712769,533.855286 375.611145,531.684692 377.854279,529.119934 
	C376.616516,528.046143 375.468750,527.050476 374.392181,526.116516 
	C357.234772,543.455811 336.634796,550.539368 312.968323,547.924011 
	C298.433502,546.317688 287.264587,539.164734 282.198242,524.606262 
	C277.232605,510.337158 272.397522,496.022675 267.154846,480.704651 
	C281.002533,485.551178 294.378174,488.953400 308.799164,488.054565 
	C308.870514,486.595001 308.939087,485.191742 308.974060,484.476410 
	C298.713684,482.658783 288.566589,481.736053 278.941437,478.986481 
	C253.562119,471.736328 234.014908,456.470795 220.427734,433.740051 
	C218.637100,430.744385 216.915771,427.707031 215.179413,424.679199 
	C210.851776,417.132843 205.847351,410.231598 197.748199,406.029205 
	C211.590759,407.224854 225.433319,408.420471 239.781387,409.659760 
	C240.288681,415.171692 241.547150,421.234680 248.432632,423.610596 
	C255.842041,426.167236 259.059113,420.303589 263.069397,415.038177 
	C264.746246,418.386902 265.670441,421.270050 267.415009,423.516022 
	C272.079834,429.521637 277.026581,435.314392 282.001617,441.070465 
	C284.712280,444.206604 287.972443,445.061157 291.819702,442.690247 
	C292.057007,443.038116 291.990417,442.993683 291.990417,442.993683 
z"/>
<path fill="#FCFCFC" opacity="1.000000" stroke="none" 
	d="
M312.977203,438.975281 
	C310.254181,441.380920 307.562744,443.823700 304.792847,446.174072 
	C303.665039,447.131073 302.467163,448.269501 301.117096,448.623749 
	C299.856140,448.954529 298.351349,448.355804 296.953857,448.166199 
	C297.165619,446.821930 297.024963,445.279022 297.651062,444.168274 
	C300.148376,439.737671 302.884308,435.441559 305.531921,431.095642 
	C305.195343,430.728546 304.858765,430.361450 304.522186,429.994354 
	C299.787415,432.369507 294.938965,434.548340 290.363251,437.198090 
	C287.869476,438.642212 285.914459,438.563904 284.304321,436.448486 
	C279.310974,429.888336 273.930481,423.533417 269.728302,416.485901 
	C265.613617,409.585144 261.522827,408.810638 256.519501,414.971191 
	C255.065125,416.761902 251.464966,419.192535 250.617172,418.635895 
	C248.293839,417.110535 246.195496,414.374603 245.365173,411.697083 
	C244.596954,409.219788 245.584732,406.197968 245.716003,404.495087 
	C228.148788,403.241272 210.659546,401.455750 193.134384,400.971832 
	C184.540771,400.734589 175.880432,402.913513 165.894516,404.169464 
	C169.603180,401.401855 172.366486,398.438049 175.774109,396.978119 
	C183.688889,393.587158 189.446945,388.362396 192.959106,380.512482 
	C195.182770,375.542450 198.379852,372.030609 204.545151,371.760223 
	C206.498581,371.674530 208.697357,369.314209 210.159027,367.493286 
	C213.386169,363.472931 225.099991,360.697906 229.370575,363.420563 
	C230.199707,363.949158 230.591080,365.164368 231.667847,366.795044 
	C229.138641,366.795044 227.447617,366.795044 225.574615,366.795044 
	C228.674759,374.115875 232.053802,376.684814 239.333115,376.091003 
	C247.207306,375.448669 253.814377,376.553711 259.529541,382.954285 
	C264.375122,388.380951 271.546631,388.706451 278.497650,387.701843 
	C279.791016,398.603149 282.549316,400.248993 292.960815,397.667633 
	C297.725647,396.486298 302.815918,395.609070 307.656525,395.968475 
	C315.733826,396.568176 319.384827,402.577118 317.349976,410.355682 
	C321.625031,413.817505 324.238464,413.829468 328.185333,410.309082 
	C329.175049,409.426331 329.863403,408.133423 330.954987,407.454773 
	C332.440369,406.531281 334.179993,406.016754 335.810608,405.326843 
	C335.628235,407.278839 335.795044,409.358154 335.145447,411.139801 
	C334.682831,412.408600 333.129669,413.285278 332.049164,414.322327 
	C327.844971,418.357452 327.882690,421.630676 332.813873,424.804657 
	C335.977264,426.840759 339.577576,428.456238 343.203461,429.462341 
	C351.020966,431.631500 355.664307,436.615631 358.120087,444.131256 
	C359.407196,448.070160 360.836365,451.994354 362.591705,455.742401 
	C367.218750,465.621979 373.815491,466.420197 380.701965,458.205444 
	C381.516327,457.234070 382.999054,456.823059 384.171936,456.152283 
	C384.508087,457.649658 385.398224,459.287750 385.061310,460.614166 
	C384.423370,463.125763 383.081146,465.458496 381.844025,468.295593 
	C382.778473,468.463959 383.496704,468.672333 384.224213,468.712677 
	C396.010651,469.366333 402.509003,475.345520 403.928223,487.063599 
	C404.465546,491.500092 406.186279,494.739716 411.044830,495.272797 
	C416.056915,495.822693 417.722900,499.201019 417.939606,503.561371 
	C418.079285,506.372223 417.271790,509.266968 417.645813,512.021301 
	C418.299225,516.833130 418.681915,521.982300 420.750793,526.222839 
	C423.170898,531.183350 424.705566,535.958191 422.737762,541.006226 
	C418.063629,552.996887 414.875305,565.320984 413.039673,578.031860 
	C412.877380,579.155579 412.374847,580.244568 411.928406,581.306824 
	C411.694946,581.862244 411.239441,582.324341 411.057800,582.582214 
	C408.712860,573.062500 406.473053,563.515259 403.959320,554.040833 
	C403.203461,551.192017 402.346680,547.868896 400.379700,545.945862 
	C396.164032,541.824463 395.898743,537.022949 396.105530,531.801453 
	C396.217468,528.974304 396.067413,526.137146 396.044525,523.304382 
	C396.010590,519.110474 394.360168,515.741333 390.451477,514.057739 
	C385.641327,511.985779 384.342285,508.202332 384.777832,503.527771 
	C385.194366,499.057556 386.054657,494.628265 386.457642,490.157349 
	C387.358002,480.168182 383.484802,475.401917 373.797455,473.240601 
	C370.971863,472.610199 368.514740,470.396057 365.841522,468.998077 
	C362.556824,467.280334 359.331146,464.527069 355.890289,464.196625 
	C343.646179,463.020813 334.545349,457.876984 328.580536,446.822906 
	C327.281677,444.415833 323.464996,441.997864 320.874084,442.066864 
	C318.572113,442.128204 316.046814,445.381165 314.205170,447.691742 
	C312.561310,449.754211 311.717346,452.454285 310.344910,455.227661 
	C307.663147,451.945770 307.663147,451.945770 313.584351,439.623413 
	C313.839752,438.798462 313.794342,438.532562 313.748932,438.266663 
	C313.491699,438.502899 313.234467,438.739105 312.977203,438.975281 
z"/>
<path fill="#FBFBFB" opacity="1.000000" stroke="none" 
	d="
M138.702133,441.485565 
	C128.051224,464.786469 121.027176,489.067383 118.488091,514.632874 
	C117.590912,523.666443 119.191963,531.796143 122.925934,540.205627 
	C126.425301,548.086731 128.110275,556.927612 129.535950,565.521606 
	C130.500595,571.336548 127.789345,573.038086 121.841621,572.655334 
	C114.177666,572.162170 109.037857,569.247681 106.329887,561.305359 
	C103.042458,551.663574 100.256104,542.415833 103.796989,532.215637 
	C105.489098,527.341248 104.259491,522.467468 100.340027,518.923767 
	C92.939667,512.232971 93.188828,504.593689 96.695686,496.196136 
	C103.991943,478.724365 115.311409,464.036499 128.107132,450.352722 
	C131.063187,447.191467 134.126907,444.130920 137.677979,441.079315 
	C138.377304,441.251556 138.539719,441.368561 138.702133,441.485565 
z"/>
<path fill="#F8F8F8" opacity="1.000000" stroke="none" 
	d="
M386.781708,629.258301 
	C385.058105,625.468262 383.492523,622.026306 381.793793,618.291565 
	C399.963379,605.840515 402.285004,587.268066 402.777008,567.469360 
	C403.204254,569.376526 403.759399,571.265503 404.034821,573.194397 
	C404.869995,579.042603 404.026611,585.304504 408.532959,590.219055 
	C408.964691,590.689941 408.831146,591.812744 408.741608,592.608337 
	C406.919739,608.798279 401.626282,623.651794 391.711151,636.724731 
	C391.322571,637.237061 391.183350,637.938477 390.597015,639.346313 
	C389.022919,635.154236 387.981323,632.380310 386.781708,629.258301 
z"/>
<path fill="#FDFDFD" opacity="1.000000" stroke="none" 
	d="
M292.093201,443.055145 
	C292.039856,442.861023 291.934448,442.654114 291.876007,442.434723 
	C291.866089,442.397400 292.057556,442.306488 292.155975,442.240356 
	C292.253632,442.415466 292.351318,442.590607 292.219696,442.879700 
	C291.990417,442.993683 292.057007,443.038116 292.093201,443.055145 
z"/>
<path fill="#FBFBFB" opacity="1.000000" stroke="none" 
	d="
M137.983734,440.942963 
	C138.040497,440.436432 138.328415,440.121521 138.616318,439.806641 
	C138.752640,440.171234 138.888962,440.535828 138.863708,441.192993 
	C138.539719,441.368561 138.377304,441.251556 137.983734,440.942963 
z"/>
<path fill="#000000" opacity="0" stroke="none" 
	d="
M313.113770,439.117889 
	C313.234467,438.739105 313.491699,438.502899 313.748932,438.266663 
	C313.794342,438.532562 313.839752,438.798462 313.714172,439.294891 
	C313.543182,439.525421 313.250366,439.260468 313.113770,439.117889 
z"/>
</svg>