<?xml version="1.0" encoding="utf-8"?>
<!-- Generator: Adobe Illustrator 26.3.1, SVG Export Plug-In . SVG Version: 6.00 Build 0)  -->
<svg version="1.1" id="Capa_1" xmlns="http://www.w3.org/2000/svg" xmlns:xlink="http://www.w3.org/1999/xlink" x="0px" y="0px"
	 viewBox="0 0 1920 1080" style="enable-background:new 0 0 1920 1080;" xml:space="preserve">
<style type="text/css">
	.st0{fill:none;stroke:#FFFFFF;stroke-width:5;stroke-miterlimit:10;}
</style>
<g>
	<path d="M730.7,245.5c0-2.1,0.6-3.8,1.9-5.1c1.3-1.3,3-1.9,5.3-1.9h109c9.6,0,18.7,1.7,27.2,5.1c8.5,3.4,16,8,22.4,13.9
		c6.4,5.9,11.5,12.8,15.2,20.7c3.7,7.9,5.6,16.4,5.6,25.5c0,7.6-1.3,14.6-3.9,21.1c-2.6,6.5-6.2,12.3-10.9,17.5
		c7.9,6.7,14.1,14.6,18.7,23.8c4.6,9.2,6.9,18.9,6.9,29.2c0,9.2-1.9,17.9-5.7,26.1c-3.8,8.2-9,15.4-15.5,21.6
		c-6.5,6.2-14.1,11.1-22.8,14.8c-8.7,3.6-17.9,5.4-27.5,5.4H738c-2.2,0-3.9-0.5-5.3-1.6c-1.3-1.1-2-2.7-2-4.9V245.5z M854.3,305.2
		c0-3-0.6-5.9-1.8-8.5c-1.2-2.6-2.9-4.9-5.1-7c-2.2-2-4.8-3.6-7.9-4.8s-6.4-1.7-10-1.7h-35.2v43.9H829c3.7,0,7.2-0.5,10.3-1.6
		s5.8-2.6,8-4.5c2.2-2,3.9-4.3,5.2-7C853.7,311.3,854.3,308.4,854.3,305.2z M863,393.1c0-3-0.6-6.1-1.9-9.1c-1.3-3-3-5.7-5.3-8.1
		c-2.3-2.4-4.9-4.3-8.1-5.8c-3.1-1.5-6.5-2.3-10.1-2.3h-43.4v50.5h43.4c3.6,0,7-0.7,10-2.1c3.1-1.4,5.8-3.3,8.1-5.7
		c2.3-2.4,4.1-5.1,5.3-8.1S863,396.3,863,393.1z"/>
	<path d="M1051.7,321.5l39.6-78.2c0.7-1.2,1.2-2.1,1.6-2.6c0.4-0.6,0.9-1,1.3-1.2c0.4-0.2,0.9-0.4,1.4-0.5c0.5-0.1,1.1-0.2,1.7-0.4
		h63.2c0.8,0,1.4,0.2,1.9,0.7c0.5,0.5,0.7,1,0.7,1.6c0,1.1-0.8,2.4-2.3,3.8l-77.8,127v84.6c0,4.7-2.5,7.1-7.5,7.1h-49.1
		c-2.2,0-3.9-0.6-5.1-1.9c-1.2-1.3-1.8-3-1.8-5.2v-84.9L942,244.6c-1.4-1.3-2.1-2.6-2.1-3.8c0-0.6,0.2-1.1,0.7-1.6
		c0.4-0.5,1-0.7,1.8-0.7h63.2c0.8,0.2,1.4,0.3,1.8,0.4c0.4,0.1,0.9,0.2,1.3,0.5c0.4,0.3,0.9,0.7,1.3,1.2c0.4,0.6,1,1.4,1.8,2.6
		L1051.7,321.5z"/>
	<path d="M1194.1,245.5c0-2.1,0.6-3.8,1.8-5.1c1.2-1.3,3-1.9,5.4-1.9h106c11.3,0,21.8,1.9,31.7,5.8c9.8,3.9,18.4,9.2,25.8,15.8
		c7.3,6.7,13.1,14.5,17.3,23.4c4.2,8.9,6.3,18.4,6.3,28.5c0,6.9-1,13.4-3,19.6c-2,6.2-4.8,12-8.5,17.4c-3.6,5.4-7.9,10.3-12.9,14.7
		c-5,4.4-10.4,8.1-16.3,11.3l42.2,73.2c0.8,1.4,1.7,3.1,3,5c1.2,1.9,1.8,3.6,1.8,5c0,1.6-0.6,2.9-1.7,3.7c-1.2,0.9-2.7,1.3-4.7,1.3
		h-56.3c-1.9,0-3.5-0.5-5-1.5s-2.4-2.4-2.9-4.1l-39.9-69.2h-26.6v68.2c0,4.3-2.5,6.5-7.6,6.5h-48.7c-2.2,0-3.9-0.5-5.3-1.6
		c-1.3-1.1-2-2.7-2-4.9V245.5z M1322.6,312.7c0-3-0.6-6.1-1.8-9.1c-1.2-3-2.9-5.8-5.1-8.3c-2.2-2.5-4.8-4.6-7.9-6.4
		c-3.1-1.7-6.5-2.8-10.2-3.3c-3.1-0.2-5.9-0.4-8.6-0.5c-2.7-0.2-5.6-0.2-8.8-0.2h-22.7v55.5h30.2c2,0,3.7,0,5.3-0.2
		c1.5-0.1,3.2-0.2,5.1-0.5c3.8-0.4,7.3-1.4,10.3-3.1c3.1-1.7,5.6-3.7,7.7-6.2c2.1-2.5,3.7-5.2,4.8-8.3
		C1322,319.1,1322.6,316,1322.6,312.7z"/>
	<path d="M1413.3,350.8c0-10.3,1.5-20.1,4.4-29.6c3-9.4,7.2-18.3,12.6-26.6c5.5-8.3,12-15.8,19.6-22.6c7.6-6.8,16.1-12.6,25.4-17.4
		c9.3-4.8,19.3-8.5,30-11.2c10.7-2.7,21.8-4,33.4-4c11.5,0,22.6,1.3,33.3,4c10.7,2.7,20.8,6.4,30.1,11.2
		c9.3,4.8,17.8,10.6,25.5,17.4c7.7,6.8,14.2,14.3,19.6,22.6c5.4,8.3,9.6,17.1,12.6,26.6c3,9.4,4.5,19.3,4.5,29.6
		c0,10.3-1.5,20.1-4.5,29.6c-3,9.4-7.2,18.3-12.6,26.4c-5.4,8.2-12,15.6-19.6,22.4c-7.7,6.7-16.1,12.5-25.5,17.4
		c-9.3,4.8-19.3,8.6-30.1,11.2c-10.7,2.6-21.8,3.9-33.3,3.9c-11.6,0-22.7-1.3-33.4-3.9c-10.7-2.6-20.7-6.3-30-11.2
		c-9.3-4.8-17.8-10.6-25.4-17.4c-7.6-6.7-14.2-14.2-19.6-22.4c-5.5-8.2-9.7-17-12.6-26.4C1414.8,370.9,1413.3,361.1,1413.3,350.8z
		 M1476.9,350.7c0,8,1.5,15.5,4.6,22.5c3.1,7,7.3,13.1,12.9,18.2c5.5,5.2,12.1,9.3,19.6,12.2s15.8,4.4,24.9,4.4
		c9.1,0,17.4-1.5,25-4.4c7.6-3,14.2-7,19.7-12.2c5.5-5.2,9.8-11.3,12.9-18.2c3.1-7,4.6-14.5,4.6-22.5c0-7.9-1.5-15.4-4.6-22.5
		c-3.1-7-7.3-13.2-12.9-18.4s-12.1-9.3-19.7-12.4c-7.6-3-15.9-4.5-25-4.5c-9.1,0-17.4,1.5-24.9,4.5c-7.5,3-14.1,7.1-19.6,12.4
		s-9.8,11.4-12.9,18.4C1478.4,335.2,1476.9,342.7,1476.9,350.7z"/>
	<path d="M1701.6,245.2c0-1.8,0.6-3.4,1.8-4.7c1.2-1.3,3.1-2,5.5-2h54.5c1.6,0,3.2,0.4,4.8,1.1c1.7,0.7,3.1,1.9,4.3,3.6
		c14.1,20.5,28.1,40.8,42,60.7c13.9,19.9,28,40.2,42.2,60.7V244.3c0.4-1.8,1.3-3.2,2.7-4.2c1.3-1,2.9-1.5,4.7-1.5h47.5
		c2.3,0,4.3,0.6,5.8,1.7c1.6,1.2,2.3,2.8,2.3,4.9v210.6c0,2-0.7,3.5-2,4.4c-1.3,1-3.2,1.4-5.5,1.4h-53.2c-1.4,0-2.7-0.5-3.8-1.4
		c-1.1-0.9-2.3-2.1-3.5-3.6c-14.8-22-29.4-43.8-43.9-65.4c-14.5-21.5-29.1-43.3-44-65.4v129.1c0,2.2-0.6,3.9-1.7,5
		c-1.1,1.1-3.1,1.7-6,1.7H1709c-2.6,0-4.4-0.6-5.6-1.9c-1.2-1.3-1.8-2.8-1.8-4.6V245.2z"/>
</g>
<g>
	<path d="M729.5,620.3c0-1.8,0.7-3.4,2-4.7c1.3-1.3,3.1-2,5.4-2h48.6c1.9,0,3.6,0.6,5.1,1.8c1.5,1.2,2.4,2.8,2.5,4.8v164.6h90.3
		c2,0,3.7,0.6,5.1,1.8c1.4,1.2,2.1,2.9,2.1,5v39.8c0,1.7-0.6,3.3-1.9,4.7s-3,2.2-5.3,2.3H736.7c-4.8,0-7.2-2.2-7.2-6.7V620.3z"/>
	<path d="M995,619.6c0.1-0.6,0.5-1.3,1.1-2c0.6-0.7,1.4-1.4,2.3-2c0.9-0.6,1.9-1.1,2.9-1.4c1-0.4,2-0.5,2.9-0.5h43.9
		c1.9,0,3.6,0.5,5,1.6c1.4,1.1,2.4,2,3.1,2.8l4.3,8.6l90.1,204.8c0.9,2,0.7,3.7-0.5,4.9c-1.3,1.3-3.4,1.9-6.5,1.9h-49.2
		c-2.6,0-4.7-0.4-6.1-1.3c-1.4-0.9-2.5-2.3-3.3-4.3c-2.3-5.1-4.5-10.3-6.7-15.4c-2.2-5.1-4.3-10.2-6.5-15.4h-91.1
		c-2.2,5.1-4.4,10.3-6.6,15.4c-2.2,5.1-4.4,10.2-6.6,15.4c-1.5,3.7-4.4,5.6-8.8,5.6H908c-2.2,0-4-0.5-5.4-1.5
		c-1.4-1-1.7-2.5-0.8-4.5L995,619.6z M1028.2,684.4c-2.1,5.1-4.2,10.7-6.3,16.6c-2.1,6-4.2,12-6.3,18c-2.1,6.1-4.2,12-6.3,17.9
		c-2.1,5.9-4.2,11.4-6.3,16.6h50.4L1028.2,684.4z"/>
	<path d="M1172.3,620.7c0-2.1,0.6-3.8,1.9-5.1c1.3-1.3,3-1.9,5.3-1.9h109c9.6,0,18.7,1.7,27.2,5.1c8.5,3.4,16,8,22.4,13.9
		c6.4,5.9,11.5,12.8,15.2,20.7c3.7,7.9,5.6,16.4,5.6,25.5c0,7.6-1.3,14.6-3.9,21.1c-2.6,6.5-6.2,12.3-10.9,17.5
		c7.9,6.7,14.1,14.6,18.7,23.7c4.6,9.2,6.9,18.9,6.9,29.2c0,9.2-1.9,17.9-5.7,26.1c-3.8,8.2-9,15.4-15.5,21.6
		c-6.5,6.2-14.1,11.1-22.8,14.7c-8.7,3.6-17.9,5.4-27.5,5.4h-118.7c-2.2,0-3.9-0.5-5.3-1.6c-1.3-1.1-2-2.7-2-4.9V620.7z
		 M1295.9,680.3c0-3-0.6-5.8-1.8-8.5c-1.2-2.6-2.9-4.9-5.1-7c-2.2-2-4.8-3.6-7.9-4.8c-3.1-1.2-6.4-1.7-10-1.7h-35.2v43.9h34.7
		c3.7,0,7.2-0.5,10.3-1.6c3.1-1.1,5.8-2.6,8-4.5c2.2-2,3.9-4.3,5.2-7C1295.2,686.5,1295.9,683.5,1295.9,680.3z M1304.6,768.2
		c0-3-0.6-6-1.9-9.1c-1.3-3-3-5.7-5.3-8.1c-2.3-2.4-4.9-4.3-8.1-5.8c-3.1-1.5-6.5-2.3-10.1-2.3h-43.4v50.5h43.4c3.6,0,7-0.7,10-2.1
		c3.1-1.4,5.8-3.3,8.1-5.7c2.3-2.4,4.1-5.1,5.3-8.1C1303.9,774.5,1304.6,771.4,1304.6,768.2z"/>
	<path d="M1438.3,765.4c1.8,1.4,4.1,3.2,7,5.5c2.8,2.3,6,4.6,9.7,6.8c5.4,3.3,10.8,5.9,16.2,7.8c5.3,1.9,10.9,2.8,16.8,2.8
		c5.4,0,10-0.6,13.7-1.7s6.6-2.6,8.7-4.5c2.1-1.9,3.7-4,4.6-6.4c0.9-2.4,1.4-5,1.4-7.7c0-3-1.3-5.7-3.8-8.1
		c-2.5-2.4-5.6-4.5-9.2-6.4c-3.6-1.9-7.4-3.4-11.4-4.7c-3.9-1.3-7.4-2.4-10.2-3.3c-12.8-4.1-24-8.5-33.6-13.2
		c-9.6-4.7-17.6-10-24-15.8c-6.4-5.8-11.2-12.2-14.4-19.1c-3.2-7-4.8-14.7-4.8-23.3c0-9.1,2-17.3,6-24.7c4-7.4,9.7-13.7,17.1-19
		c7.4-5.3,16.3-9.3,26.8-12.2c10.4-2.9,22.1-4.3,35-4.3c9.7,0,19,1,27.9,3c8.9,2,17.7,5.2,26.3,9.6c3.6,2,7.1,4,10.3,6.1
		c3.3,2.1,6.1,4.1,8.6,6.1c2.5,2,4.4,3.8,5.8,5.6c1.4,1.8,2.2,3.3,2.2,4.5c0,1.3-0.3,2.4-1,3.5c-0.7,1.1-1.7,2.3-3.1,3.7l-24.5,23.8
		c-1.8,1.7-3.6,2.5-5.4,2.5c-1.5,0-2.9-0.4-4.1-1.2c-1.2-0.8-2.6-1.8-4.1-2.9l-1.4-1.2c-2.1-1.7-4.5-3.4-7.1-5.1
		c-2.6-1.8-5.4-3.3-8.4-4.8c-3-1.4-6.1-2.6-9.4-3.5c-3.3-0.9-6.7-1.4-10.1-1.4c-3.5,0-6.8,0.3-9.9,0.8c-3.1,0.5-5.8,1.4-8.2,2.6
		c-2.3,1.2-4.2,2.7-5.6,4.6c-1.4,1.9-2.1,4.2-2.1,6.9c0,2.7,0.7,5.1,2.2,7.1c1.5,2,3.7,3.9,6.7,5.6c3,1.7,6.7,3.3,11.1,4.8
		c4.4,1.5,9.6,3.1,15.4,4.9c11.3,3.4,21.7,7,31.3,10.7c9.5,3.8,17.8,8.2,24.7,13.3c6.9,5.1,12.3,11.2,16.2,18.4
		c3.9,7.1,5.8,15.7,5.8,25.9c0,10.7-2.4,20.5-7.2,29.2c-4.8,8.7-11.4,16.2-19.7,22.3c-8.4,6.1-18.2,10.9-29.5,14.3
		c-11.3,3.4-23.5,5-36.5,5c-12.3,0-24.3-2-36.1-6c-11.8-4-22.9-9.4-33.1-16.1c-4.3-2.8-7.9-5.6-10.8-8.4c-2.9-2.7-5.3-4.9-7-6.6
		l-0.5-0.4c-0.1-0.2-0.2-0.3-0.3-0.4c-0.1,0-0.2-0.1-0.3-0.2c-0.1-0.2-0.2-0.3-0.3-0.4s-0.2-0.1-0.3-0.2c-2.5-2.4-3.7-4.4-3.7-5.9
		c0-1.7,1.2-3.5,3.7-5.6l27.7-24.1c2.2-1.5,4.1-2.2,5.4-2.2c1,0,2,0.3,3,0.9C1435.5,763.4,1436.8,764.2,1438.3,765.4z"/>
</g>
<g>
	<circle cx="298.1" cy="536.7" r="298.1"/>
	<path class="st0" d="M352.1,565.5c-0.1-3.4-0.8-6.9,0.1-10.2c0.8-2.9,2.7-5.3,4.7-7.5c5-5.4,11.6-9.6,18.9-10.5
		c7.3-0.9,15.3,2.2,19,8.6c2.4,4.3,2.8,9.4,3,14.2c0.8,15.3,1.3,31.9-7.5,44.4c-4.3,6.1-10.4,10.7-16.4,15.1
		c-7.7,5.5-16,11-25.4,12.4c-2.5,0.4-5.2,0.4-7.5-0.8c-3.4-1.9-4.8-6.4-4.2-10.3c0.6-3.9,2.7-7.4,4.8-10.7"/>
	<path class="st0" d="M257.8,730.1"/>
	<path class="st0" d="M128.9,613.6c-4.5,9-5.8,23.3-0.7,32.1c2.5,4.3,6,7.9,8.6,12.1c6.5,10.8,6.3,24.2,7,36.8
		c0.3,5.3,0.8,10.7,3,15.5c5.4,12,19.9,17.3,33.1,17.2s31.1-4.9,38.9-6.2c13-2.2,14.2-4.4,30.7-11.8"/>
	<path class="st0" d="M245.1,711.8c5.9-3.3,11.7-6.7,17.6-10c5.7-3.2,11.5-6.5,17.8-8.6c8.2-2.7,17.3-3.4,24.4-8.4
		c7.6-5.4,11.3-14.6,14.6-23.3c2.3-6.1,4.6-12.2,6.9-18.3"/>
	<path class="st0" d="M214.3,721.9c2.3-1.7-1.9,3.7,0.3,5.5c2.3,1.8,3.5,4.5,4.5,7.3c6.4,18.3,0.9,38.4-4.7,57
		c-2.6,8.8-5.3,17.7-7.9,26.5"/>
	<path class="st0" d="M378.2,616.6c0.8,4.9,6.9,14.4,7.7,19.3c0.4,2.1,1.5,4.8,3.6,4.4c0.9-0.2,1.6-0.9,2.1-1.6
		c9.6-12.1,15.9-26.8,18-42.2c0.8-6.2,1.2-13,5.5-17.5c2.4-2.5,5.7-3.9,8.8-5.6c8.2-4.3,15.6-10.9,19-19.6c4.1-10.4,2-22.5,6-32.9
		c4.3-11.2,14.9-18.7,24.7-25.6c3.6-2.5,7.4-5.5,8.5-9.8c0.8-3.4-0.3-7-0.7-10.5c-0.7-6.1,0.9-12.5,4.5-17.6c2.2-3.2,5.2-6,6.5-9.7
		c2-5.9-2.1-13.1-8.2-14.5"/>
	<path class="st0" d="M462.1,450.9c13.7,0,19.1-18.2,22.3-27.2c2.8-8,5-18.6-1.9-23.7c-3.9-2.9-9.6-2.8-13-6.3
		c-5.2-5.3-1.5-14.2-2.9-21.4c-1.3-6.9-7.4-12.1-14.1-14.4c-6.7-2.3-13.9-2.2-20.9-2c-1.7-2.5,2-5,3.6-7.6c2.6-3.9-0.3-9.6-4.6-11.6
		c-4.3-2-9.3-1.3-13.9-0.5c-7.1,1.3-14.2,2.8-21.2,4.7c-8-15.5-28.6-22-45-16.2c-16.4,5.8-27.8,18.2-30.4,35.3"/>
	<path class="st0" d="M348.4,378.5c-5.3-3.6-10.5-7.2-15.8-10.8c-5.8-4-11.8-8-18.5-10.1s-14.5-1.9-20.4,2.1
		c-3.7,2.6-7.3,6.8-11.8,6c-2.1-0.4-3.9-1.9-5.8-2.8c-6.3-2.9-13.6,0.7-19.6,4.2c-6.1,3.4-18.7,7.9-24.7,4.4"/>
	<path class="st0" d="M164.2,408.7c-25.9,26.7-55.7,50.2-70.4,84.4c-2.8,6.6-4.8,14.6-1,20.8c2.4,4,7.1,6.8,8,11.5
		c0.6,3.3-0.9,6.7-1.7,10c-2.5,10,1.6,20.3,5.7,29.7c1.1,2.5,2.3,5.1,4.7,6.3c4.5,2.2,17.2,4.7,20,0.6c4.2-6.3-0.3-21-2.4-28.3
		c-1.2-4.2-4.1-7.7-5.7-11.8c-2.2-5.6-1.9-11.8-1.4-17.8c2-21.1,7.2-41.8,15.2-61.4C141.8,436.7,150.4,419.1,164.2,408.7"/>
	<path class="st0" d="M161.1,411.3c5.1-8.9,31.4-6.9,39.5-0.6c8.1,6.3,12.3,16.2,17.6,25c18.4,30.6,54,50.1,89.8,49.1"/>
	<path class="st0" d="M261.5,473.7c5,14.7,9.9,29.3,14.9,44c2.3,6.8,4.7,13.8,9.4,19.2c4,4.5,9.3,7.6,14.9,9.9
		c22.2,9.2,59.9-1.1,74.3-20.4"/>
	<path class="st0" d="M392.8,541.9c-0.1-6-0.1-12-0.2-18c0-2.3-0.1-4.9-1.6-6.7c-1.4-1.7-3.8-2.3-5.7-3.6
		c-5.5-3.9-4.5-12.2-3.1-18.9c1.4-6.6,1.8-15.2-4.2-18.4c-3.8-2-9-0.8-12.4-3.6c-1.5-1.2-2.4-3-3.7-4.4c-3.2-3-8.1-2.8-12.4-3.4
		c-9.5-1.2-18.2-7.3-22.7-15.7c-1.5-2.8-3.2-6.2-6.3-6.2c-3.3,0-5,4-6,7.1s-3.5,6.9-6.7,6c-3.7-1.2-4.2-5.4-2.4-8.9
		c-1.9,1.8-2.5,2.3-5,3.1c-2.5,0.8-5.7,0.2-7-2.1c-2.8-4.9,4.8-9.3,6.6-14.7c-4.7,2.4-9.3,4.8-14,7.2c-9-6.1-16.1-15-20.2-25.1
		c-0.5-1.1-0.9-2.4-2-3c-1.8-1.1-4.1,0.1-5.4,1.8c-1.3,1.6-2.1,3.7-3.8,5c-3.3,2.6-8.5,1-10.9-2.5c-2.4-3.5-2.4-8-1.7-12.1
		c-13,2-26.3-0.7-39.4-2c-13.1-1.3-27.2-1.1-38.4,6c-2.7-4.6,1-10.4,5.5-13.2c4.5-2.8,10-4.1,13.8-7.8c6.1-5.9,7.5-17.5,15.9-18.9
		c2-0.3,4.2,0,5.8-1.2c1.3-0.9,1.8-2.5,2.7-3.8c2.7-3.9,8.1-4.6,12.9-4.9c3.6-0.2,7.6-0.3,10.2,2.1s1.5,8.2-2.1,7.9
		c4.9,7,16.6,0.9,24.1,5c2.7,1.4,4.5,4,6.7,6c6.1,5.4,15.8,6.2,22.7,1.8c-2.1,4.4-3.6,11.1,0.8,13.1c2.1,1,4.5,0.3,6.7-0.4
		c6.6-2,13.7-3.7,20.2-1.6s11.8,9.6,9,15.9c2.4,1.9,5.8-0.3,7.7-2.6c1.9-2.3,4-5.3,7.1-5.1c3,0.2,4.9,3.8,4.3,6.8
		c-0.6,3-3,5.3-5.4,7.2c-1,0.8-2.2,1.8-2.3,3.1c0,1,0.7,1.9,1.4,2.6c5.2,4.9,13.5,4.9,19.3,9c7.4,5.2,8.8,15.4,12.5,23.7
		c1.7,3.9,5.6,8.2,9.6,6.6c3.8-1.6,4.8-7.6,8.8-7.9c2.7-0.2,4.9,2.6,5,5.3s-1.2,5.2-2.5,7.6c10.1,0.1,19.5,8.5,20.6,18.5
		c0.3,2.7,0.3,5.9,2.5,7.4c1.6,1.1,3.6,0.8,5.4,1.3c5,1.4,6.8,7.7,6.5,12.9c-0.3,5.2-1.7,10.6,0.2,15.4c1,2.4,2.7,4.4,3.9,6.8
		c5.2,10.9-4.7,22.9-6.5,34.8c-1.4,8.8-2.2,18.5-6.7,26.2c-6.7-4.8-3-14.5-6.2-22.1c-2.3-5.5-3.3-14.4-6.4-19.4
		c-3.1-5.1-8.3-7-6.2-12.5"/>
	<path class="st0" d="M417.7,809.3"/>
	<path class="st0" d="M387.7,639.2c-7.8,25.2-15.8,51.5-11.4,77.5c5.2,31,30,63.3,41.4,92.6"/>
	<path class="st0" d="M152.2,514.7c2.9,12.5-0.7,25.8-6.9,37.1c-6.2,11.2-15,20.8-23.5,30.5c-4.2,4.8-8.6,10.4-7.7,16.7
		c0.9,6.1,6.6,10.3,12,13.2c5.4,2.9,11.5,5.7,14.6,11c-0.2-0.9-0.4-1.9-0.6-2.8"/>
	<path class="st0" d="M249,522.8c-3-2.8-15.6-13.8-35.1-14.2c-18.4-0.4-31,9-34.3,11.7"/>
	<path class="st0" d="M144.4,517.6c-13.7-7.1-13.5-5.6-21.5-1.6"/>
</g>
</svg>
